<svg width="71" height="36" viewBox="0 0 71 36" fill="none" xmlns="http://www.w3.org/2000/svg">
<mask id="mask0_1_3801" style="mask-type:luminance" maskUnits="userSpaceOnUse" x="0" y="0" width="71" height="36">
<path d="M70.0156 0H0.015625V36H70.0156V0Z" fill="white"/>
</mask>
<g mask="url(#mask0_1_3801)">
<path fill-rule="evenodd" clip-rule="evenodd" d="M67.8829 0C67.3154 0 66.7758 0.209883 66.3746 0.586347C65.9735 0.963831 65.75 1.4702 65.75 2.00408C65.75 2.53744 65.9735 3.04432 66.3746 3.42129C66.7753 3.79827 67.3149 4.00815 67.8829 4.00815C68.4504 4.00815 68.989 3.79827 69.3907 3.42129C69.7923 3.04432 70.0153 2.53744 70.0153 2.00408C70.0153 1.47071 69.7918 0.963831 69.3907 0.586347C68.989 0.209883 68.4499 0 67.8829 0Z" fill="white"/>
<path fill-rule="evenodd" clip-rule="evenodd" d="M69.0628 0.895008C69.3764 1.18946 69.5505 1.58579 69.5505 2.0025C69.5505 2.41921 69.3764 2.81503 69.0628 3.10948C68.7497 3.40443 68.3275 3.56796 67.8851 3.56796C67.4417 3.56796 67.02 3.40392 66.7069 3.10948C66.3938 2.81503 66.2188 2.41921 66.2188 2.0025C66.2188 1.58579 66.3938 1.18946 66.7069 0.895008C67.02 0.600561 67.4417 0.436523 67.8851 0.436523C68.3275 0.436523 68.7497 0.60107 69.0628 0.895008Z" fill="black"/>
<path fill-rule="evenodd" clip-rule="evenodd" d="M67.5493 1.39455V1.87698H67.8732C67.9237 1.87698 67.9757 1.87239 68.0236 1.8566C68.0576 1.84539 68.091 1.82807 68.1178 1.80464C68.141 1.78375 68.1569 1.75981 68.1683 1.73179C68.1811 1.69919 68.1863 1.66506 68.1863 1.63042C68.1863 1.56368 68.1683 1.50153 68.1106 1.45772C68.0431 1.40678 67.9474 1.39404 67.8639 1.39404H67.5493V1.39455ZM67.0781 1.0293V2.97479H67.5488V2.23918H67.7851L68.2661 2.97479H68.8104L68.2563 2.17754L68.2785 2.16888C68.3099 2.15665 68.3403 2.14239 68.3696 2.12558C68.4314 2.08992 68.4875 2.04458 68.5318 1.99109C68.5751 1.93913 68.6075 1.88105 68.6286 1.8184C68.6497 1.75675 68.66 1.69257 68.66 1.62787C68.66 1.5428 68.6446 1.45874 68.608 1.38029C68.5735 1.30439 68.521 1.23969 68.4525 1.18722C68.3809 1.13169 68.2965 1.09399 68.2084 1.06954C68.1055 1.0405 67.9963 1.0293 67.8881 1.0293H67.0781Z" fill="white"/>
<path fill-rule="evenodd" clip-rule="evenodd" d="M53.9484 15.6454L50.9169 15.2068L50.9102 14.6189C50.9061 14.2129 50.9086 13.9281 50.472 13.8772V16.8288C50.5163 16.838 50.5616 16.8466 50.6069 16.8543C51.7403 17.0448 52.7207 17.0876 53.6178 16.3311C53.7599 16.2109 53.8598 15.948 53.9108 15.7799C53.9252 15.7346 53.9376 15.6897 53.9484 15.6454ZM52.7146 8.42942L52.6744 7.8609C52.6682 7.77634 52.6615 7.69177 52.6559 7.60772C52.6492 7.52112 52.626 7.29748 52.5591 7.22718C52.3448 7.00456 50.8139 7.05244 50.473 7.0606V9.89809C50.6682 9.92152 50.7897 9.91745 50.8592 9.72794C50.9447 9.49463 50.9045 9.31531 50.9117 9.08658L50.9328 8.40497L52.7146 8.42942ZM23.2245 15.0499L20.193 15.355L20.2018 14.5766C20.2023 14.5038 20.2033 14.4304 20.2043 14.3571C20.2049 14.2929 20.2043 14.1447 20.1879 14.0433C20.071 14.0367 19.8938 14.0509 19.7847 14.0606C19.7826 14.9944 19.7944 15.9287 19.7934 16.8629C20.0977 16.8227 20.4005 16.7702 20.6992 16.6994C21.5221 16.5048 22.3671 16.1604 22.9397 15.5522C23.052 15.4325 23.1462 15.2537 23.2245 15.0499ZM21.9541 8.51195L21.9402 8.28525C21.9397 8.27608 21.9392 8.26793 21.9382 8.25876C21.9325 8.21648 21.9289 8.17573 21.9263 8.13293C21.916 7.95311 21.8882 7.72947 21.7909 7.57053C21.5097 7.11205 20.3645 7.07027 19.8954 7.05907C19.8583 7.05856 19.8212 7.05754 19.7847 7.05703C19.7826 8.03767 19.795 9.0178 19.7934 9.99794C19.9191 9.98622 20.0936 9.96228 20.1374 9.92203C20.2054 9.85937 20.2332 9.50838 20.2373 9.42687C20.2414 9.34638 20.2471 9.26691 20.2502 9.18642L20.2816 8.54353L20.9659 8.52621C21.2955 8.51806 21.6246 8.51449 21.9541 8.51195ZM7.69882 19.8787L7.09427 18.5675V19.6709C7.09427 19.7346 7.09376 19.8548 7.09942 19.9674L7.69882 19.8787ZM14.2186 9.4773C14.1171 11.5405 13.3715 13.3907 11.6114 14.6678L12.9209 17.5333C13.0018 17.7142 13.1387 17.9796 13.3107 18.1029C13.3885 18.1589 13.475 18.1813 13.5677 18.1966C13.735 18.1737 14.0049 18.0861 14.2191 18.0127V9.4773H14.2186ZM7.1329 11.8533C8.07525 11.3938 8.55467 10.3433 8.566 9.3255C8.57836 8.2231 8.13035 7.19152 7.1329 6.73864V11.8533ZM63.6974 6.35708C63.7144 6.34995 63.7345 6.34384 63.7489 6.33925C63.8205 6.31582 63.8915 6.29289 63.9631 6.26997L64.459 6.10644L64.4559 5.61281C64.4482 4.50278 64.442 3.39274 64.4348 2.2822L64.4296 1.46355L63.5712 1.60466C61.6015 1.92866 59.618 2.12988 57.639 2.39478L57.0061 2.47985V6.56951L57.6797 6.62351C57.6977 6.62453 57.725 6.62708 57.7502 6.63115C57.8692 6.91541 57.8749 7.98163 57.8769 8.22157C57.9073 11.1487 57.8769 14.0769 57.8769 17.0046C57.8769 17.2037 57.8558 18.1039 57.6766 18.2516C57.6581 18.2598 57.6308 18.2628 57.5973 18.2639V14.2914L54.5833 13.8385V8.50634H56.5777V2.47272L55.7584 2.55932C51.0472 3.05958 46.3102 3.37593 41.5721 3.542L40.8635 3.56696V7.05601L41.5016 7.13701C41.5598 7.14414 41.6195 7.14771 41.6787 7.15025C41.6705 7.17878 41.6633 7.20476 41.6566 7.22769C41.294 8.29238 40.931 9.35708 40.568 10.4213C40.2945 9.41516 40.0226 8.40853 39.725 7.40853C39.709 7.35352 39.6776 7.25825 39.6488 7.15891C39.7023 7.15433 39.7559 7.14822 39.8095 7.13956L40.4125 7.03462V3.58072L39.6601 3.596C37.8758 3.63217 36.0905 3.62606 34.3067 3.63726C33.6965 3.64134 33.0858 3.63879 32.4761 3.62911L31.7268 3.61689V7.1579H31.8659L31.4719 7.88841L31.0934 7.1635H31.3046V3.61893L30.5924 3.59651C25.0927 3.42534 19.607 3.13293 14.1408 2.52927L13.319 2.43808L13.3159 5.61842C12.9801 5.01933 12.5584 4.47323 12.0615 4.02494C11.5764 3.58836 11.0517 3.21903 10.4569 2.92458C9.0794 2.24042 7.29871 1.96686 5.78167 1.66375C4.32745 1.37338 2.87529 1.07486 1.42211 0.780922L0.53125 0.600586V5.86752L1.04929 6.01577C1.1461 6.04531 1.26505 6.07894 1.35877 6.11714C1.43962 6.41057 1.40563 7.70807 1.40563 7.95413C1.40563 12.0845 1.39585 16.2155 1.39585 20.3469C1.39585 20.54 1.40409 21.4513 1.31861 21.6225C1.28462 21.6673 1.20532 21.7315 1.16258 21.7728C1.06216 21.8691 0.932395 21.9577 0.820136 22.0412L0.540004 22.2491V27.9022L1.63478 27.3286C3.55245 26.3235 5.5175 25.46 7.50829 24.5965L7.93621 24.4106V20.3948L9.50269 23.7906L10.168 23.5389C10.6418 23.3601 11.1619 23.2078 11.648 23.0565C12.5059 22.7891 13.3679 22.5293 14.232 22.2796C14.5935 22.1742 14.955 22.0718 15.3175 21.9704C18.9448 20.9633 22.6045 20.1584 26.342 19.6036L26.9589 19.5125L26.9636 18.9256C26.978 17.1681 26.9697 15.4101 26.9636 13.6525L26.961 12.9057L23.9578 13.1299V8.94292L25.8652 8.95311V8.35046L26.2061 8.94139L28.2602 12.5033L28.2478 14.864C28.2473 15.028 28.2504 15.5624 28.2035 15.8145C28.1412 15.8242 28.0733 15.8308 28.0295 15.8364L27.392 15.918V19.5242L28.2056 19.4442C29.0517 19.3606 29.8977 19.2832 30.7464 19.2262C31.665 19.1655 32.5842 19.1304 33.5049 19.1059L34.2207 19.0871V15.5425H33.3865C33.3839 15.5425 33.3803 15.542 33.3772 15.542C33.3484 15.2888 33.3551 14.8803 33.3556 14.7315L33.3608 12.5038L34.9643 9.44827L37.8851 19.1406L38.4145 19.1645C39.3795 19.2063 40.3311 19.2878 41.293 19.3673L41.8857 19.4172L44.6628 10.9694V15.1141C44.6628 15.27 44.667 15.7341 44.6289 15.9913C44.5804 15.9949 44.5331 15.9969 44.4852 15.9995L43.7859 16.0326V19.5914L44.4136 19.6795C52.7738 20.8568 61.0021 23.5191 68.4117 27.3352L69.5024 27.8971V17.0346L65.4889 16.0764V17.921C65.4889 18.3311 65.4637 19.7636 64.8437 19.892C64.6917 19.9236 64.5084 19.9022 64.3575 19.8721C64.1289 19.8278 63.9039 19.7539 63.6835 19.6811L63.5743 19.6475V8.16044C63.5723 7.90216 63.5645 6.62096 63.6974 6.35708Z" fill="black"/>
<path fill-rule="evenodd" clip-rule="evenodd" d="M36.4386 35.4531H36.2764H33.7475H33.5868L33.4699 35.3436L26.0521 28.4266L25.3105 27.7354H26.3291H29.8993H30.0599L30.1763 27.8449L37.0694 34.2728L37.3799 34.5616L37.072 34.8535L36.5555 35.3416L36.4386 35.4531Z" fill="white"/>
<path fill-rule="evenodd" clip-rule="evenodd" d="M36.7894 34.5652L36.2734 35.0532H33.744L26.3262 28.1357H29.8963L36.7894 34.5652Z" fill="white"/>
<path fill-rule="evenodd" clip-rule="evenodd" d="M40.0177 32.1212L39.7401 31.8614L39.1448 31.3071L38.875 31.054L39.1067 30.7661C39.5784 30.1823 39.8266 29.4854 39.8266 28.7524C39.8266 28.5715 39.8101 28.3851 39.7777 28.1996L39.6958 27.7305H40.1763H43.7052H44.7243L43.9833 28.4218L40.2963 31.8614L40.0177 32.1212Z" fill="white"/>
<path fill-rule="evenodd" clip-rule="evenodd" d="M40.0186 31.57L43.7066 28.1309H40.1772C40.2122 28.3326 40.2313 28.5399 40.2313 28.7518C40.2313 29.5822 39.9419 30.3728 39.4238 31.0152L40.0186 31.57Z" fill="white"/>
<path fill-rule="evenodd" clip-rule="evenodd" d="M42.0961 34.2927H41.0781H37.4997H37.339L37.2221 34.1837L32.2173 29.5173L31.4768 28.8265H32.4954H36.1917C36.2442 28.8265 36.289 28.7919 36.289 28.7512C36.289 28.7236 36.2509 28.6814 36.1917 28.6814H31.4825H31.3218L31.205 28.5729L28.676 26.2137L27.9355 25.5234H28.9536H32.1931H32.532H36.1917C38.0867 25.5234 39.6274 26.9712 39.6274 28.7512C39.6274 29.6136 39.2536 30.4404 38.6089 31.041L41.3556 33.6024L42.0961 34.2927Z" fill="white"/>
<path fill-rule="evenodd" clip-rule="evenodd" d="M37.9966 31.0196C38.7397 30.5051 39.2227 29.6824 39.2227 28.7512C39.2227 27.1893 37.8653 25.9229 36.1912 25.9229H32.5315H32.1921H28.9531L31.4826 28.2815H36.1912C36.4657 28.2815 36.6933 28.4944 36.6933 28.7512C36.6933 29.0145 36.4657 29.227 36.1912 29.227H32.4955L37.4997 33.8933H41.0771L37.9966 31.0196Z" fill="white"/>
<path fill-rule="evenodd" clip-rule="evenodd" d="M25.6214 6.46981L28.999 12.3277L28.9856 14.8656C28.9763 16.3837 28.8677 16.4255 28.1292 16.5202V18.7531C30.1767 18.5513 31.3641 18.4678 33.4847 18.4117V16.2319H33.3626C32.7334 16.1871 32.6155 16.2003 32.6191 14.7271L32.6247 12.3389L34.7947 8.2044L35.1578 7.57476L35.3555 8.2044L38.4493 18.4693C39.5667 18.5187 40.2418 18.5829 41.3577 18.6751L44.9783 7.66136L45.396 6.51311L45.3996 7.66136V15.1112C45.4104 16.4 45.2945 16.5987 44.8619 16.6603C44.7857 16.671 44.7461 16.6766 44.5221 16.6878V18.992C52.6964 20.1433 61.053 22.7531 68.7648 26.7261V17.5712L66.2241 16.965V17.9191C66.2241 21.2345 64.4871 20.6792 63.4382 20.3318L62.8367 20.1458V8.15856C62.8239 6.19014 62.9495 5.8636 63.5113 5.68275C63.5953 5.65575 63.6364 5.64302 63.7204 5.61551C63.7116 4.28336 63.708 3.61754 63.6998 2.28438C61.5973 2.63028 59.8356 2.79788 57.7449 3.07806V5.93186C58.4731 5.99045 58.5972 6.37099 58.6157 8.21306C58.6451 11.1428 58.6157 14.073 58.6157 17.0032C58.6157 19.0062 57.9803 19.1112 56.8628 18.8458V14.8804L54.8174 14.5732C54.8097 14.6736 54.819 16.2482 54.112 16.8448C53.1289 17.6746 52.0573 17.7999 50.479 17.5345C50.0959 17.4698 50.1221 17.4392 49.7375 17.3791V13.236C49.8384 13.2457 50.22 13.1754 50.3214 13.1754C51.7875 13.1754 51.6479 14.5055 51.649 14.6099L53.8483 14.9278V9.13512L51.649 9.10507C51.6459 9.2044 51.8441 10.7724 50.3364 10.5778L49.7375 10.613V6.38372C50.032 6.37761 50.1438 6.37404 50.4378 6.36742C52.6423 6.31648 53.3092 6.42397 53.3916 7.55845C53.3988 7.65932 53.4029 7.71128 53.4106 7.81215H55.8427V3.24566C51.1268 3.74643 46.3465 4.06584 41.6018 4.23242V6.44995C41.6409 6.45504 41.7027 6.45759 41.7996 6.46217C42.1008 6.47746 42.4602 6.56915 42.4623 6.92116C42.4633 7.0526 42.4314 7.1774 42.3655 7.41989C41.7429 9.24567 41.1203 11.0714 40.4967 12.8967C39.9838 11.1336 39.5394 9.34602 39.0173 7.5936C38.8767 7.12188 38.8412 6.97669 38.8401 6.82845C38.8401 6.74592 38.8381 6.5284 39.489 6.47593C39.5837 6.46829 39.6321 6.46523 39.6764 6.45708V4.28693C37.8911 4.32259 36.0991 4.31443 34.3127 4.32819C33.6495 4.32972 33.0053 4.32819 32.4646 4.31953V6.46421C32.944 6.46421 32.9357 6.6909 32.7607 7.02967L31.4625 9.4367L30.0695 6.77292C30.0371 6.70058 29.9465 6.47032 30.3929 6.47032H30.5685V4.28693C25.0117 4.11321 19.5898 3.8259 14.0567 3.2151L14.0541 6.21103C14.2045 6.24414 14.2127 6.25738 14.2884 6.28286C14.7179 6.42957 14.9749 6.66951 14.9574 8.21561V18.3221C14.8925 18.426 14.8024 18.5299 14.6834 18.5875C14.2776 18.7286 13.7024 18.9125 13.5196 18.8881C13.084 18.8295 12.6349 18.6782 12.2436 17.7994L10.7008 14.4235C14.1407 12.3659 14.4053 7.09386 11.5541 4.52279C10.0144 3.13461 8.52824 2.92269 5.63114 2.33889C4.02399 2.02253 1.26953 1.45605 1.26953 1.45605V5.35316C1.26953 5.35316 1.58159 5.44689 1.69591 5.49885C2.20107 5.72962 2.14443 6.13818 2.14443 7.95275C2.14443 12.6395 2.13464 17.3557 2.13464 20.3455C2.13464 21.9477 2.02754 21.9308 1.6923 22.2538C1.62691 22.3175 1.59395 22.3496 1.27829 22.5829V26.722C3.36589 25.6282 5.2269 24.8223 7.20173 23.966V22.0765V20.6517C7.0251 20.6777 7.00708 20.6787 6.92778 20.6828C6.44887 20.7036 6.35824 20.4459 6.35824 19.669L6.35876 15.2294L9.89542 22.8957C10.3996 22.7057 12.9486 21.9186 15.1108 21.3048C18.2355 20.4499 21.9215 19.5574 26.2291 18.9176C26.244 17.0796 26.2291 13.6527 26.2291 13.6527L24.2336 13.802C24.2336 13.802 24.142 15.319 23.4931 16.0088C22.0616 17.5299 19.4374 17.5712 19.0538 17.6384C19.0723 15.9436 19.0352 15.0969 19.0538 13.4016C19.1537 13.3909 19.5461 13.3863 19.6465 13.3766C20.6249 13.2793 20.9534 13.3954 20.9426 14.3623C20.9421 14.4637 20.9411 14.481 20.94 14.5824L23.2238 14.3526V9.18708C22.2166 9.2095 21.9921 9.19116 20.9884 9.21663C20.9838 9.31342 20.9802 9.36283 20.975 9.45963C20.9277 10.3598 20.6336 10.6486 19.7201 10.6965C19.6022 10.7026 19.1722 10.7052 19.0538 10.7108C19.0733 8.96599 19.0342 8.09335 19.0538 6.34806C19.3478 6.35519 19.6202 6.35927 19.9148 6.36589C22.1203 6.41632 22.6038 7.05973 22.6636 8.09386C22.6692 8.18556 22.6708 8.15091 22.6764 8.24312L25.1307 8.25586V6.47083L25.1297 5.52636L25.6214 6.46981ZM6.39738 12.7663V5.82947C8.48447 6.06329 9.32126 7.75713 9.30375 9.33125C9.28727 10.7989 8.39847 12.5681 6.39738 12.7663Z" fill="white"/>
</g>
</svg>
