<svg width="30" height="28" viewBox="0 0 30 28" fill="none" xmlns="http://www.w3.org/2000/svg">
<g clip-path="url(#clip0_1_3799)">
<path fill-rule="evenodd" clip-rule="evenodd" d="M27.3374 0H0.564453V28H7.26521V27.988C7.19904 27.0617 7.36746 26.1955 7.25919 25.3474C7.19904 25.0707 7.37348 24.379 7.43363 24.1504C7.21708 23.8677 7.57197 23.6451 7.65618 23.3865C7.28927 22.9594 6.73588 22.5023 6.41107 21.9669C7.59002 21.4677 8.1013 20.8902 8.43814 20.4211C8.42009 20.1805 8.39002 20.2045 8.35393 19.9699C7.95693 19.5128 7.584 18.809 7.43964 18.5323C7.31333 18.2015 7.43964 17.1248 7.52987 16.397C7.36746 14.9654 7.16896 13.2391 7.13889 11.8015C7.13889 11.597 7.39754 11.0857 7.57197 10.8872C8.26972 10.1053 9.49678 8.75188 9.83964 8.58346C10.2005 8.43308 10.8502 8.1985 11.2171 8.05414C11.2111 8.01805 11.199 8.01203 11.169 7.99399C11.0186 8.03008 10.8201 8.08421 10.5494 8.16241C10.3028 8.22857 10.0321 8.31278 9.79754 8.33684C9.95994 8.14436 10.0923 8 10.2547 7.80752C10.4171 7.74737 10.7479 7.66316 10.772 7.6391C11.0727 7.23609 11.4216 6.8391 11.7223 6.40601C11.8306 6.36993 11.6562 6.2015 11.566 6.07519C11.59 5.82256 11.5599 5.56992 11.6442 5.31128C11.7344 5.25714 11.7945 5.15489 11.8848 5.10075C11.6622 4.83008 11.596 4.54737 11.5118 4.21053C11.4396 3.92782 11.3554 3.48271 11.4517 3.34436C11.4938 3.28421 11.7825 3.26015 11.9389 3.24812C12.0712 3.35038 12.3058 3.36241 12.402 3.51278C12.4923 3.11579 12.6005 3.01353 12.781 2.69474C12.8411 2.58647 12.9013 2.46617 12.9614 2.35188C13.0878 2.12932 13.4186 1.83459 13.7855 1.73233C14.0141 1.42556 13.8216 1.49774 14.2547 1.32331C14.4652 1.2391 15.199 1.20301 15.4336 1.18496C15.6682 1.16692 16.0351 1.12481 16.2757 1.18496C16.6366 1.2812 16.5524 1.35338 16.8291 1.57594C17.0457 1.61203 17.2261 1.62406 17.3825 1.69624C17.8396 1.86466 18.6336 2.14737 18.8201 2.68271C18.9885 3.16391 18.9524 3.41654 18.9945 3.87368C19.2592 4.25865 19.5359 4.81203 19.6081 5.34135C19.6923 5.7985 19.6863 6.36993 19.6141 6.81504C19.5178 7.4406 19.2171 7.9579 18.8261 8.42707C18.766 8.63759 18.6757 8.69173 18.4772 8.7218C18.3449 8.74586 18.3028 8.73985 18.1765 8.69774C18.0502 8.7579 17.9599 8.73985 17.9299 8.93835C17.8096 9.07669 17.6712 9.34135 17.4426 9.42556C17.4727 9.47368 17.3163 9.46767 17.3404 9.51579C17.5208 9.85865 17.6893 10.2436 17.7735 10.5925C17.9178 10.9053 18.1043 11.1098 18.1945 11.4406C18.4772 11.2602 18.7359 11.2481 19.0607 11.1639C19.2833 11.1038 19.5419 11.1639 19.6622 11.3023C19.8607 11.5368 20.0351 11.7353 20.2637 11.9399C20.4682 12.1203 20.6066 12.2947 20.5885 12.5654C20.763 12.7459 20.9795 12.9504 20.6908 13.3113C20.5163 13.5278 20.2036 13.6962 19.9389 13.7143C19.4878 13.7504 19.0607 13.8767 18.6156 13.9308C18.6276 14.0632 18.6457 14.1654 18.6577 14.2977C19.1028 14.2436 19.6261 14.2737 20.0652 14.2316C20.3479 14.2075 20.5945 14.1474 20.8772 14.0812C20.9675 13.9489 21.0096 13.8466 21.1299 13.7925C21.4968 13.6361 21.6051 13.588 22.2005 13.3414C22.2427 13.2271 22.3208 13.0586 22.3569 13.0105C22.4291 12.9143 22.8802 12.806 23.1569 12.812C23.596 12.812 24.2036 12.7519 24.3599 12.8301C24.4983 12.8962 24.7569 13.0887 24.9254 13.3113C25.0517 13.4797 25.166 13.6782 25.2502 13.8707C25.4246 14.2797 25.4366 14.5925 25.3765 15.0496C25.3524 15.2301 25.2802 15.6211 25.2562 15.6331C25.1118 15.7053 24.9133 15.7835 24.787 15.7173C24.7208 15.6331 24.6246 15.4226 24.4502 15.3564C24.2457 15.4586 23.975 15.5489 23.7344 15.585C23.5479 15.615 23.3494 15.6391 23.1569 15.615C23.0547 15.5789 23.0607 15.4586 22.9404 15.4707C22.6276 15.5609 22.1645 15.6692 21.8396 15.6872C21.6592 15.8737 21.172 16.1865 21.0336 16.2647C20.8291 16.385 19.7584 16.7338 18.9223 16.8421C18.7118 16.8662 18.3449 17.2812 18.2005 17.4737C18.2547 18.0752 18.2667 18.6226 18.2426 19.194C18.2186 19.8316 18.1103 20.409 17.9599 21.0286C17.8336 21.1128 17.6772 21.1128 17.5389 21.1368C17.2802 20.9985 17.0216 20.8421 16.799 20.6256C16.7389 21.0045 16.6126 21.3654 16.4081 21.7143C16.8051 21.8286 17.202 21.997 17.3945 22.1774C17.6051 22.3759 18.0261 23.3263 18.2487 23.9098C18.3269 24.1624 18.3269 24.5173 18.387 24.6617C18.5254 24.9985 18.8802 25.6602 19.2111 26.1173C19.3795 26.3519 19.6622 26.418 19.7945 26.6767C19.9148 26.9173 19.8848 27.1158 19.8547 27.3805C19.9329 27.585 20.0171 27.8015 20.1013 28.012H29.0096V0H27.3314H27.3374Z" fill="white"/>
</g>
<defs>
<clipPath id="clip0_1_3799">
<rect width="28.4511" height="28" fill="white" transform="translate(0.564453)"/>
</clipPath>
</defs>
</svg>
