<svg width="20" height="20" viewBox="0 0 20 20" fill="none" xmlns="http://www.w3.org/2000/svg">
<path d="M14.8875 16.9997H5.11045C4.55109 16.9985 4.01497 16.7758 3.61944 16.3803C3.22391 15.9848 3.00118 15.4488 3 14.8895V6.37186C3.00107 5.8122 3.22405 5.27579 3.62004 4.88023C4.01603 4.48468 4.55273 4.26225 5.11248 4.26172H14.8895C15.4493 4.26279 15.9858 4.48573 16.3814 4.88167C16.777 5.2776 16.9995 5.81422 17 6.37389V14.8875C16.9994 15.4475 16.7766 15.9843 16.3806 16.3803C15.9845 16.7763 15.4476 16.999 14.8875 16.9997ZM5.11045 5.27418C4.81938 5.2745 4.54033 5.39025 4.33452 5.59604C4.1287 5.80183 4.01293 6.08084 4.01261 6.37186V14.8875C4.01358 15.1781 4.12962 15.4566 4.33535 15.6619C4.54108 15.8672 4.81977 15.9827 5.11045 15.9832H14.8875C15.1779 15.9823 15.4561 15.8666 15.6614 15.6613C15.8667 15.456 15.9825 15.1778 15.9833 14.8875V6.37186C15.9826 6.08151 15.8669 5.80326 15.6615 5.59795C15.4562 5.39264 15.1779 5.27696 14.8875 5.27621L5.11045 5.27418Z" fill="#2E2C2F"/>
<path d="M16.4927 9.93163H3.52197C3.38742 9.93163 3.25838 9.87818 3.16324 9.78304C3.0681 9.6879 3.01465 9.55886 3.01465 9.42431C3.01465 9.28976 3.0681 9.16072 3.16324 9.06558C3.25838 8.97044 3.38742 8.91699 3.52197 8.91699H16.4927C16.6273 8.91699 16.7563 8.97044 16.8514 9.06558C16.9466 9.16072 17 9.28976 17 9.42431C17 9.55886 16.9466 9.6879 16.8514 9.78304C16.7563 9.87818 16.6273 9.93163 16.4927 9.93163Z" fill="#2E2C2F"/>
<path d="M6.73584 6.61362C6.6692 6.61367 6.6032 6.60059 6.54163 6.57512C6.48005 6.54964 6.42411 6.51228 6.37699 6.46517C6.32987 6.41806 6.2925 6.36212 6.26702 6.30055C6.24155 6.23898 6.22846 6.173 6.22852 6.10637V3.50725C6.22852 3.37272 6.28197 3.2437 6.37711 3.14857C6.47225 3.05344 6.60129 3 6.73584 3C6.87039 3 6.99942 3.05344 7.09456 3.14857C7.18971 3.2437 7.24316 3.37272 7.24316 3.50725V6.10637C7.24316 6.2409 7.18971 6.36992 7.09456 6.46505C6.99942 6.56018 6.87039 6.61362 6.73584 6.61362Z" fill="#2E2C2F"/>
<path d="M13.2627 6.61362C13.1961 6.61367 13.1301 6.60059 13.0685 6.57512C13.0069 6.54964 12.951 6.51228 12.9038 6.46517C12.8567 6.41806 12.8194 6.36212 12.7939 6.30055C12.7684 6.23898 12.7553 6.173 12.7554 6.10637V3.50725C12.7554 3.37272 12.8088 3.2437 12.904 3.14857C12.9991 3.05344 13.1281 3 13.2627 3C13.3972 3 13.5263 3.05344 13.6214 3.14857C13.7166 3.2437 13.77 3.37272 13.77 3.50725V6.10637C13.77 6.2409 13.7166 6.36992 13.6214 6.46505C13.5263 6.56018 13.3972 6.61362 13.2627 6.61362Z" fill="#2E2C2F"/>
</svg>
