<svg width="349" height="100" viewBox="0 0 349 100" fill="none" xmlns="http://www.w3.org/2000/svg">
<path d="M8.84943 2.81818V13H7.61648V3.91193H2.4858V13H1.25284V2.81818H8.84943ZM14.2797 13.1591C13.5903 13.1591 12.9854 12.995 12.465 12.6669C11.948 12.3388 11.5436 11.8797 11.252 11.2898C10.9636 10.6998 10.8194 10.0104 10.8194 9.22159C10.8194 8.42614 10.9636 7.73177 11.252 7.13849C11.5436 6.54522 11.948 6.08452 12.465 5.75639C12.9854 5.42827 13.5903 5.2642 14.2797 5.2642C14.969 5.2642 15.5723 5.42827 16.0893 5.75639C16.6097 6.08452 17.014 6.54522 17.3024 7.13849C17.594 7.73177 17.7399 8.42614 17.7399 9.22159C17.7399 10.0104 17.594 10.6998 17.3024 11.2898C17.014 11.8797 16.6097 12.3388 16.0893 12.6669C15.5723 12.995 14.969 13.1591 14.2797 13.1591ZM14.2797 12.1051C14.8033 12.1051 15.2342 11.9709 15.5723 11.7024C15.9103 11.4339 16.1606 11.081 16.323 10.6435C16.4854 10.206 16.5666 9.73201 16.5666 9.22159C16.5666 8.71117 16.4854 8.23556 16.323 7.79474C16.1606 7.35393 15.9103 6.99763 15.5723 6.72585C15.2342 6.45407 14.8033 6.31818 14.2797 6.31818C13.756 6.31818 13.3251 6.45407 12.987 6.72585C12.649 6.99763 12.3987 7.35393 12.2363 7.79474C12.0739 8.23556 11.9927 8.71117 11.9927 9.22159C11.9927 9.73201 12.0739 10.206 12.2363 10.6435C12.3987 11.081 12.649 11.4339 12.987 11.7024C13.3251 11.9709 13.756 12.1051 14.2797 12.1051ZM18.7156 15.1875V11.9062H19.3519C19.5077 11.7438 19.6419 11.5682 19.7546 11.3793C19.8673 11.1903 19.9651 10.9666 20.0479 10.7081C20.1341 10.4463 20.207 10.1281 20.2667 9.75355C20.3263 9.37571 20.3794 8.91998 20.4258 8.38636L20.6843 5.36364H25.5366V11.9062H26.7099V15.1875H25.5366V13H19.8888V15.1875H18.7156ZM20.6843 11.9062H24.3633V6.45739H21.7781L21.5792 8.38636C21.4963 9.18513 21.3936 9.88281 21.271 10.4794C21.1483 11.076 20.9528 11.5516 20.6843 11.9062ZM27.8297 6.45739V5.36364H34.0343V6.45739H31.5286V13H30.3553V6.45739H27.8297ZM35.7457 13V5.36364H38.8679C39.6899 5.36364 40.3428 5.54924 40.8267 5.92045C41.3106 6.29167 41.5526 6.7822 41.5526 7.39205C41.5526 7.85606 41.415 8.21567 41.1399 8.47088C40.8648 8.72277 40.5118 8.89347 40.081 8.98295C40.3627 9.02273 40.6361 9.12216 40.9013 9.28125C41.1697 9.44034 41.3918 9.65909 41.5675 9.9375C41.7431 10.2126 41.831 10.5507 41.831 10.9517C41.831 11.3428 41.7315 11.6925 41.5327 12.0007C41.3338 12.3089 41.0488 12.5526 40.6776 12.7315C40.3063 12.9105 39.8622 13 39.3452 13H35.7457ZM36.8594 11.9261H39.3452C39.7495 11.9261 40.0661 11.83 40.2947 11.6378C40.5234 11.4455 40.6378 11.1837 40.6378 10.8523C40.6378 10.4579 40.5234 10.148 40.2947 9.92259C40.0661 9.69389 39.7495 9.57955 39.3452 9.57955H36.8594V11.9261ZM36.8594 8.56534H38.8679C39.1828 8.56534 39.4529 8.52225 39.6783 8.43608C39.9036 8.34659 40.076 8.22064 40.1953 8.05824C40.3179 7.89252 40.3793 7.69697 40.3793 7.47159C40.3793 7.15009 40.245 6.8982 39.9766 6.71591C39.7081 6.5303 39.3385 6.4375 38.8679 6.4375H36.8594V8.56534ZM46.8088 13.1591C46.073 13.1591 45.4383 12.9967 44.9047 12.6719C44.3743 12.3438 43.965 11.8864 43.6767 11.2997C43.3916 10.7098 43.2491 10.0237 43.2491 9.24148C43.2491 8.45928 43.3916 7.76989 43.6767 7.1733C43.965 6.57339 44.3661 6.10606 44.8798 5.77131C45.3968 5.43324 46.0001 5.2642 46.6895 5.2642C47.0872 5.2642 47.4799 5.33049 47.8677 5.46307C48.2555 5.59564 48.6085 5.81108 48.9267 6.10938C49.2449 6.40436 49.4984 6.79545 49.6873 7.28267C49.8762 7.76989 49.9707 8.36979 49.9707 9.08239V9.57955H44.0843V8.56534H48.7775C48.7775 8.13447 48.6913 7.75 48.519 7.41193C48.35 7.07386 48.108 6.80705 47.7931 6.61151C47.4816 6.41596 47.1137 6.31818 46.6895 6.31818C46.2221 6.31818 45.8178 6.43419 45.4764 6.66619C45.1383 6.89489 44.8781 7.19318 44.6958 7.56108C44.5136 7.92898 44.4224 8.32339 44.4224 8.74432V9.42045C44.4224 9.99716 44.5218 10.486 44.7207 10.8871C44.9229 11.2848 45.2029 11.5881 45.5609 11.7969C45.9189 12.0024 46.3348 12.1051 46.8088 12.1051C47.117 12.1051 47.3954 12.062 47.644 11.9759C47.8959 11.8864 48.113 11.7538 48.2953 11.5781C48.4776 11.3991 48.6184 11.1771 48.7179 10.9119L49.8514 11.2301C49.7321 11.6146 49.5315 11.9527 49.2498 12.2443C48.9681 12.5327 48.6201 12.758 48.2058 12.9205C47.7915 13.0795 47.3258 13.1591 46.8088 13.1591ZM51.7555 15.8636V5.36364H52.889V6.5767H53.0282C53.1144 6.44413 53.2337 6.27509 53.3862 6.0696C53.542 5.8608 53.764 5.67519 54.0524 5.51278C54.344 5.34706 54.7385 5.2642 55.2356 5.2642C55.8786 5.2642 56.4454 5.42495 56.9359 5.74645C57.4264 6.06794 57.8092 6.52367 58.0843 7.11364C58.3594 7.7036 58.497 8.39962 58.497 9.2017C58.497 10.0104 58.3594 10.7114 58.0843 11.3047C57.8092 11.8946 57.4281 12.352 56.9409 12.6768C56.4537 12.9983 55.8919 13.1591 55.2555 13.1591C54.765 13.1591 54.3722 13.0779 54.0772 12.9155C53.7823 12.7498 53.5552 12.5625 53.3961 12.3537C53.237 12.1416 53.1144 11.9659 53.0282 11.8267H52.9288V15.8636H51.7555ZM52.9089 9.18182C52.9089 9.75852 52.9934 10.2673 53.1625 10.7081C53.3315 11.1456 53.5784 11.4886 53.9032 11.7372C54.228 11.9825 54.6258 12.1051 55.0964 12.1051C55.5869 12.1051 55.9963 11.9759 56.3244 11.7173C56.6558 11.4555 56.9044 11.1042 57.0701 10.6634C57.2392 10.2192 57.3237 9.72538 57.3237 9.18182C57.3237 8.64489 57.2408 8.16098 57.0751 7.73011C56.9127 7.29593 56.6658 6.95289 56.3343 6.70099C56.0062 6.44579 55.5936 6.31818 55.0964 6.31818C54.6191 6.31818 54.2181 6.43916 53.8933 6.68111C53.5685 6.91974 53.3232 7.2545 53.1575 7.68537C52.9918 8.11293 52.9089 8.61174 52.9089 9.18182ZM59.4714 15.1875V11.9062H60.1078C60.2636 11.7438 60.3978 11.5682 60.5105 11.3793C60.6232 11.1903 60.7209 10.9666 60.8038 10.7081C60.89 10.4463 60.9629 10.1281 61.0225 9.75355C61.0822 9.37571 61.1352 8.91998 61.1816 8.38636L61.4402 5.36364H66.2924V11.9062H67.4657V15.1875H66.2924V13H60.6447V15.1875H59.4714ZM61.4402 11.9062H65.1191V6.45739H62.5339L62.335 8.38636C62.2522 9.18513 62.1494 9.88281 62.0268 10.4794C61.9042 11.076 61.7086 11.5516 61.4402 11.9062ZM70.1964 11.2699L73.8754 5.36364H75.2276V13H74.0543V7.09375L70.3952 13H69.0231V5.36364H70.1964V11.2699ZM76.3375 6.45739V5.36364H82.5421V6.45739H80.0364V13H78.8631V6.45739H76.3375ZM87.0588 13.1591C86.323 13.1591 85.6883 12.9967 85.1547 12.6719C84.6243 12.3438 84.215 11.8864 83.9267 11.2997C83.6416 10.7098 83.4991 10.0237 83.4991 9.24148C83.4991 8.45928 83.6416 7.76989 83.9267 7.1733C84.215 6.57339 84.6161 6.10606 85.1298 5.77131C85.6468 5.43324 86.2501 5.2642 86.9395 5.2642C87.3372 5.2642 87.7299 5.33049 88.1177 5.46307C88.5055 5.59564 88.8585 5.81108 89.1767 6.10938C89.4949 6.40436 89.7484 6.79545 89.9373 7.28267C90.1262 7.76989 90.2207 8.36979 90.2207 9.08239V9.57955H84.3343V8.56534H89.0275C89.0275 8.13447 88.9413 7.75 88.769 7.41193C88.6 7.07386 88.358 6.80705 88.0431 6.61151C87.7316 6.41596 87.3637 6.31818 86.9395 6.31818C86.4721 6.31818 86.0678 6.43419 85.7264 6.66619C85.3883 6.89489 85.1281 7.19318 84.9458 7.56108C84.7636 7.92898 84.6724 8.32339 84.6724 8.74432V9.42045C84.6724 9.99716 84.7718 10.486 84.9707 10.8871C85.1729 11.2848 85.4529 11.5881 85.8109 11.7969C86.1689 12.0024 86.5848 12.1051 87.0588 12.1051C87.367 12.1051 87.6454 12.062 87.894 11.9759C88.1459 11.8864 88.363 11.7538 88.5453 11.5781C88.7276 11.3991 88.8684 11.1771 88.9679 10.9119L90.1014 11.2301C89.9821 11.6146 89.7815 11.9527 89.4998 12.2443C89.2181 12.5327 88.8701 12.758 88.4558 12.9205C88.0415 13.0795 87.5758 13.1591 87.0588 13.1591ZM93.7555 11.608L93.676 12.1449C93.6196 12.5227 93.5334 12.9271 93.4174 13.358C93.3047 13.7888 93.1871 14.1948 93.0645 14.576C92.9418 14.9571 92.8407 15.2604 92.7612 15.4858H91.8663C91.9094 15.2737 91.9657 14.9936 92.0353 14.6456C92.1049 14.2976 92.1745 13.9081 92.2441 13.4773C92.3171 13.0497 92.3767 12.6122 92.4231 12.1648L92.4828 11.608H93.7555ZM105.753 5.36364V13H104.58V5.36364H105.753ZM105.296 9.00284V10.0966C105.031 10.196 104.767 10.2839 104.505 10.3601C104.243 10.433 103.968 10.491 103.68 10.5341C103.392 10.5739 103.075 10.5938 102.73 10.5938C101.865 10.5938 101.171 10.3601 100.647 9.89276C100.127 9.42543 99.8668 8.72443 99.8668 7.78977V5.34375H101.04V7.78977C101.04 8.18087 101.115 8.50237 101.264 8.75426C101.413 9.00616 101.615 9.19342 101.87 9.31605C102.126 9.43868 102.412 9.5 102.73 9.5C103.228 9.5 103.677 9.45526 104.078 9.36577C104.482 9.27296 104.888 9.15199 105.296 9.00284ZM106.867 6.45739V5.36364H113.071V6.45739H110.566V13H109.392V6.45739H106.867ZM117.489 13.1591C116.799 13.1591 116.194 12.995 115.674 12.6669C115.157 12.3388 114.753 11.8797 114.461 11.2898C114.173 10.6998 114.028 10.0104 114.028 9.22159C114.028 8.42614 114.173 7.73177 114.461 7.13849C114.753 6.54522 115.157 6.08452 115.674 5.75639C116.194 5.42827 116.799 5.2642 117.489 5.2642C118.178 5.2642 118.781 5.42827 119.298 5.75639C119.819 6.08452 120.223 6.54522 120.511 7.13849C120.803 7.73177 120.949 8.42614 120.949 9.22159C120.949 10.0104 120.803 10.6998 120.511 11.2898C120.223 11.8797 119.819 12.3388 119.298 12.6669C118.781 12.995 118.178 13.1591 117.489 13.1591ZM117.489 12.1051C118.012 12.1051 118.443 11.9709 118.781 11.7024C119.119 11.4339 119.37 11.081 119.532 10.6435C119.694 10.206 119.776 9.73201 119.776 9.22159C119.776 8.71117 119.694 8.23556 119.532 7.79474C119.37 7.35393 119.119 6.99763 118.781 6.72585C118.443 6.45407 118.012 6.31818 117.489 6.31818C116.965 6.31818 116.534 6.45407 116.196 6.72585C115.858 6.99763 115.608 7.35393 115.445 7.79474C115.283 8.23556 115.202 8.71117 115.202 9.22159C115.202 9.73201 115.283 10.206 115.445 10.6435C115.608 11.081 115.858 11.4339 116.196 11.7024C116.534 11.9709 116.965 12.1051 117.489 12.1051ZM126.677 13V5.36364H129.8C130.622 5.36364 131.274 5.54924 131.758 5.92045C132.242 6.29167 132.484 6.7822 132.484 7.39205C132.484 7.85606 132.347 8.21567 132.072 8.47088C131.796 8.72277 131.443 8.89347 131.013 8.98295C131.294 9.02273 131.568 9.12216 131.833 9.28125C132.101 9.44034 132.323 9.65909 132.499 9.9375C132.675 10.2126 132.763 10.5507 132.763 10.9517C132.763 11.3428 132.663 11.6925 132.464 12.0007C132.265 12.3089 131.98 12.5526 131.609 12.7315C131.238 12.9105 130.794 13 130.277 13H126.677ZM127.791 11.9261H130.277C130.681 11.9261 130.998 11.83 131.226 11.6378C131.455 11.4455 131.569 11.1837 131.569 10.8523C131.569 10.4579 131.455 10.148 131.226 9.92259C130.998 9.69389 130.681 9.57955 130.277 9.57955H127.791V11.9261ZM127.791 8.56534H129.8C130.114 8.56534 130.385 8.52225 130.61 8.43608C130.835 8.34659 131.008 8.22064 131.127 8.05824C131.25 7.89252 131.311 7.69697 131.311 7.47159C131.311 7.15009 131.177 6.8982 130.908 6.71591C130.64 6.5303 130.27 6.4375 129.8 6.4375H127.791V8.56534ZM135.553 8.12784H137.74C138.635 8.12784 139.32 8.35488 139.794 8.80895C140.268 9.26302 140.505 9.83807 140.505 10.5341C140.505 10.9915 140.399 11.4074 140.186 11.782C139.974 12.1532 139.663 12.4498 139.252 12.6719C138.841 12.8906 138.337 13 137.74 13H134.539V5.36364H135.712V11.9062H137.74C138.204 11.9062 138.586 11.7836 138.884 11.5384C139.182 11.2931 139.331 10.9782 139.331 10.5938C139.331 10.1894 139.182 9.85961 138.884 9.6044C138.586 9.34919 138.204 9.22159 137.74 9.22159H135.553V8.12784ZM141.718 13V5.36364H142.891V13H141.718ZM154.087 8.64489V9.73864H149.871V8.64489H154.087ZM150.15 5.36364V13H148.976V5.36364H150.15ZM154.982 5.36364V13H153.809V5.36364H154.982ZM160.326 13.1591C159.591 13.1591 158.956 12.9967 158.422 12.6719C157.892 12.3438 157.483 11.8864 157.194 11.2997C156.909 10.7098 156.767 10.0237 156.767 9.24148C156.767 8.45928 156.909 7.76989 157.194 7.1733C157.483 6.57339 157.884 6.10606 158.397 5.77131C158.914 5.43324 159.518 5.2642 160.207 5.2642C160.605 5.2642 160.998 5.33049 161.385 5.46307C161.773 5.59564 162.126 5.81108 162.444 6.10938C162.762 6.40436 163.016 6.79545 163.205 7.28267C163.394 7.76989 163.488 8.36979 163.488 9.08239V9.57955H157.602V8.56534H162.295C162.295 8.13447 162.209 7.75 162.037 7.41193C161.868 7.07386 161.626 6.80705 161.311 6.61151C160.999 6.41596 160.631 6.31818 160.207 6.31818C159.74 6.31818 159.335 6.43419 158.994 6.66619C158.656 6.89489 158.396 7.19318 158.213 7.56108C158.031 7.92898 157.94 8.32339 157.94 8.74432V9.42045C157.94 9.99716 158.039 10.486 158.238 10.8871C158.44 11.2848 158.721 11.5881 159.078 11.7969C159.436 12.0024 159.852 12.1051 160.326 12.1051C160.635 12.1051 160.913 12.062 161.162 11.9759C161.413 11.8864 161.631 11.7538 161.813 11.5781C161.995 11.3991 162.136 11.1771 162.235 10.9119L163.369 11.2301C163.25 11.6146 163.049 11.9527 162.767 12.2443C162.486 12.5327 162.138 12.758 161.723 12.9205C161.309 13.0795 160.843 13.1591 160.326 13.1591ZM169.211 15.8636V5.36364H170.344V6.5767H170.483C170.569 6.44413 170.689 6.27509 170.841 6.0696C170.997 5.8608 171.219 5.67519 171.507 5.51278C171.799 5.34706 172.194 5.2642 172.691 5.2642C173.334 5.2642 173.9 5.42495 174.391 5.74645C174.882 6.06794 175.264 6.52367 175.539 7.11364C175.815 7.7036 175.952 8.39962 175.952 9.2017C175.952 10.0104 175.815 10.7114 175.539 11.3047C175.264 11.8946 174.883 12.352 174.396 12.6768C173.909 12.9983 173.347 13.1591 172.711 13.1591C172.22 13.1591 171.827 13.0779 171.532 12.9155C171.237 12.7498 171.01 12.5625 170.851 12.3537C170.692 12.1416 170.569 11.9659 170.483 11.8267H170.384V15.8636H169.211ZM170.364 9.18182C170.364 9.75852 170.449 10.2673 170.618 10.7081C170.787 11.1456 171.033 11.4886 171.358 11.7372C171.683 11.9825 172.081 12.1051 172.551 12.1051C173.042 12.1051 173.451 11.9759 173.779 11.7173C174.111 11.4555 174.359 11.1042 174.525 10.6634C174.694 10.2192 174.779 9.72538 174.779 9.18182C174.779 8.64489 174.696 8.16098 174.53 7.73011C174.368 7.29593 174.121 6.95289 173.789 6.70099C173.461 6.44579 173.049 6.31818 172.551 6.31818C172.074 6.31818 171.673 6.43916 171.348 6.68111C171.024 6.91974 170.778 7.2545 170.613 7.68537C170.447 8.11293 170.364 8.61174 170.364 9.18182ZM180.844 13.1591C180.155 13.1591 179.55 12.995 179.029 12.6669C178.512 12.3388 178.108 11.8797 177.816 11.2898C177.528 10.6998 177.384 10.0104 177.384 9.22159C177.384 8.42614 177.528 7.73177 177.816 7.13849C178.108 6.54522 178.512 6.08452 179.029 5.75639C179.55 5.42827 180.155 5.2642 180.844 5.2642C181.533 5.2642 182.137 5.42827 182.654 5.75639C183.174 6.08452 183.578 6.54522 183.867 7.13849C184.158 7.73177 184.304 8.42614 184.304 9.22159C184.304 10.0104 184.158 10.6998 183.867 11.2898C183.578 11.8797 183.174 12.3388 182.654 12.6669C182.137 12.995 181.533 13.1591 180.844 13.1591ZM180.844 12.1051C181.368 12.1051 181.799 11.9709 182.137 11.7024C182.475 11.4339 182.725 11.081 182.887 10.6435C183.05 10.206 183.131 9.73201 183.131 9.22159C183.131 8.71117 183.05 8.23556 182.887 7.79474C182.725 7.35393 182.475 6.99763 182.137 6.72585C181.799 6.45407 181.368 6.31818 180.844 6.31818C180.32 6.31818 179.89 6.45407 179.551 6.72585C179.213 6.99763 178.963 7.35393 178.801 7.79474C178.638 8.23556 178.557 8.71117 178.557 9.22159C178.557 9.73201 178.638 10.206 178.801 10.6435C178.963 11.081 179.213 11.4339 179.551 11.7024C179.89 11.9709 180.32 12.1051 180.844 12.1051ZM191.763 2.5L192.36 3.21591C192.128 3.44129 191.859 3.59872 191.554 3.68821C191.249 3.7777 190.905 3.83239 190.52 3.85227C190.136 3.87216 189.708 3.89205 189.237 3.91193C188.707 3.93182 188.268 4.06108 187.92 4.29972C187.572 4.53835 187.303 4.88305 187.115 5.33381C186.926 5.78456 186.805 6.33807 186.752 6.99432H186.851C187.11 6.51705 187.468 6.16572 187.925 5.94034C188.382 5.71496 188.873 5.60227 189.396 5.60227C189.993 5.60227 190.53 5.74148 191.007 6.01989C191.485 6.2983 191.862 6.71094 192.141 7.25781C192.419 7.80469 192.558 8.47917 192.558 9.28125C192.558 10.08 192.416 10.7694 192.131 11.3494C191.849 11.9295 191.453 12.3769 190.943 12.6918C190.436 13.0033 189.841 13.1591 189.158 13.1591C188.475 13.1591 187.877 12.9983 187.363 12.6768C186.849 12.352 186.45 11.8714 186.165 11.2351C185.88 10.5954 185.737 9.80492 185.737 8.86364V8.0483C185.737 6.34801 186.026 5.05871 186.602 4.1804C187.182 3.30208 188.054 2.84801 189.218 2.81818C189.628 2.80492 189.995 2.80161 190.316 2.80824C190.638 2.81487 190.918 2.79995 191.156 2.76349C191.395 2.72704 191.597 2.6392 191.763 2.5ZM189.158 12.1051C189.619 12.1051 190.015 11.9891 190.346 11.7571C190.681 11.5251 190.938 11.1986 191.117 10.7777C191.296 10.3535 191.385 9.85464 191.385 9.28125C191.385 8.72443 191.294 8.25047 191.112 7.85938C190.933 7.46828 190.676 7.16998 190.341 6.96449C190.006 6.759 189.605 6.65625 189.138 6.65625C188.797 6.65625 188.49 6.71425 188.218 6.83026C187.946 6.94626 187.714 7.11695 187.522 7.34233C187.33 7.56771 187.181 7.8428 187.075 8.16761C186.972 8.49242 186.917 8.86364 186.911 9.28125C186.911 10.1364 187.111 10.8208 187.512 11.3345C187.913 11.8482 188.462 12.1051 189.158 12.1051ZM197.455 13.1591C196.766 13.1591 196.161 12.995 195.641 12.6669C195.124 12.3388 194.719 11.8797 194.428 11.2898C194.139 10.6998 193.995 10.0104 193.995 9.22159C193.995 8.42614 194.139 7.73177 194.428 7.13849C194.719 6.54522 195.124 6.08452 195.641 5.75639C196.161 5.42827 196.766 5.2642 197.455 5.2642C198.145 5.2642 198.748 5.42827 199.265 5.75639C199.785 6.08452 200.19 6.54522 200.478 7.13849C200.77 7.73177 200.916 8.42614 200.916 9.22159C200.916 10.0104 200.77 10.6998 200.478 11.2898C200.19 11.8797 199.785 12.3388 199.265 12.6669C198.748 12.995 198.145 13.1591 197.455 13.1591ZM197.455 12.1051C197.979 12.1051 198.41 11.9709 198.748 11.7024C199.086 11.4339 199.336 11.081 199.499 10.6435C199.661 10.206 199.742 9.73201 199.742 9.22159C199.742 8.71117 199.661 8.23556 199.499 7.79474C199.336 7.35393 199.086 6.99763 198.748 6.72585C198.41 6.45407 197.979 6.31818 197.455 6.31818C196.932 6.31818 196.501 6.45407 196.163 6.72585C195.825 6.99763 195.575 7.35393 195.412 7.79474C195.25 8.23556 195.169 8.71117 195.169 9.22159C195.169 9.73201 195.25 10.206 195.412 10.6435C195.575 11.081 195.825 11.4339 196.163 11.7024C196.501 11.9709 196.932 12.1051 197.455 12.1051ZM201.709 6.45739V5.36364H207.913V6.45739H205.407V13H204.234V6.45739H201.709Z" fill="#7E8183"/>
<path d="M285.256 25.4062H14.7493C7.38876 25.4062 1.42188 31.3801 1.42188 38.7492V84.8235C1.42188 92.1926 7.38876 98.1665 14.7493 98.1665H285.256C292.616 98.1665 298.583 92.1926 298.583 84.8235V38.7492C298.583 31.3801 292.616 25.4062 285.256 25.4062Z" fill="#EAECF2"/>
<path d="M245.876 44.9951L249.692 48.8688C247.813 50.4543 246.304 52.4327 245.27 54.6649C244.237 56.897 243.705 59.3286 243.711 61.7888C243.711 62.1363 243.723 62.4804 243.743 62.8224H251.409C251.37 62.4792 251.35 62.1342 251.349 61.7888C251.347 60.3434 251.69 58.9185 252.35 57.6327C253.009 56.3469 253.966 55.2375 255.14 54.3967L259.371 58.6889V44.9951H245.876Z" fill="#3385FF"/>
<path d="M273.226 51.3469C270.194 47.4765 265.514 44.9951 260.262 44.9951C259.966 44.9951 259.671 45.0033 259.375 45.0195V52.7913C259.67 52.7611 259.966 52.7459 260.262 52.7458C261.759 52.7499 263.231 53.1329 264.541 53.859C265.851 54.5851 266.956 55.6309 267.754 56.8992L263.318 61.3991H276.813V47.7075L273.226 51.3469Z" fill="#0D32A6"/>
<path d="M260.261 70.8281C258.842 70.824 257.444 70.479 256.186 69.8222C254.927 69.1653 253.844 68.2158 253.028 67.0533L257.206 62.8154H243.711V76.5148L247.586 72.5845C249.038 74.3552 250.845 75.8018 252.889 76.8313C254.934 77.8609 257.171 78.4506 259.457 78.5625C261.743 78.6744 264.027 78.306 266.162 77.4811C268.297 76.6561 270.236 75.3928 271.854 73.7725L266.449 68.289C264.799 69.9154 262.577 70.8274 260.261 70.8281Z" fill="#ABABAB"/>
<path d="M75.1763 56.8174H73.8633V67.1383H75.1763V56.8174Z" fill="#5E5E5E"/>
<path d="M77.9693 56.5254L76.6562 58.7159H77.5922L79.4331 56.5254H77.9693Z" fill="#5E5E5E"/>
<path d="M87.2589 59.5576C86.5647 59.5576 86.0812 59.7419 85.6432 60.0783C85.3072 60.3394 85.0295 60.6681 84.8281 61.0431H84.7981C84.481 60.1705 83.7269 59.5576 82.7299 59.5576C81.5223 59.5576 80.8447 60.216 80.4355 60.921H80.3911L80.3302 59.7264H79.168C79.2134 60.3392 79.229 60.9665 79.229 61.7326V67.1384H80.5264V62.6663C80.5238 62.442 80.5614 62.219 80.6373 62.0079C80.8491 61.334 81.4524 60.6601 82.283 60.6601C83.2944 60.6601 83.8078 61.5183 83.8078 62.6974V67.1384H85.1053V62.5597C85.1061 62.331 85.1417 62.1038 85.2107 61.8858C85.438 61.2274 86.0257 60.6645 86.7809 60.6645C87.8522 60.6645 88.3656 61.5228 88.3656 62.9472V67.1428H89.6642V62.774C89.6587 60.2016 88.2248 59.5576 87.2589 59.5576Z" fill="#5E5E5E"/>
<path d="M101.378 59.5576C100.17 59.5576 99.3254 60.2471 98.9627 60.9521H98.9328L98.8574 59.7308H97.6797C97.7252 60.3437 97.7407 60.971 97.7407 61.737V67.1428H99.0714V62.6819C99.0671 62.4692 99.0978 62.2572 99.1624 62.0546C99.3842 61.304 100.068 60.6756 100.943 60.6756C102.196 60.6756 102.633 61.6749 102.633 62.8662V67.1384H103.964V62.7129C103.959 60.1705 102.389 59.5576 101.378 59.5576Z" fill="#5E5E5E"/>
<path d="M108.791 59.5576C106.768 59.5576 105.168 61.0131 105.168 63.4934C105.168 65.836 106.693 67.306 108.67 67.306C110.435 67.306 112.307 66.1125 112.307 63.3713C112.307 61.1041 110.889 59.5576 108.791 59.5576ZM108.73 66.3001C107.432 66.3001 106.512 65.0788 106.512 63.4523C106.512 62.0434 107.191 60.5734 108.761 60.5734C110.331 60.5734 110.949 62.1655 110.949 63.4212C110.949 65.0855 109.999 66.3001 108.73 66.3001Z" fill="#5E5E5E"/>
<path d="M115.164 57.5977L113.866 57.9496V59.726H112.734V60.7485H113.866V64.791C113.866 65.6647 114.002 66.3231 114.379 66.7206C114.696 67.0881 115.194 67.2879 115.813 67.2879C116.213 67.3009 116.613 67.2383 116.991 67.1036L116.93 66.0933C116.678 66.1575 116.419 66.1881 116.16 66.1843C115.42 66.1843 115.162 65.6647 115.162 64.741V60.7485H117.064V59.7227H115.162L115.164 57.5977Z" fill="#5E5E5E"/>
<path d="M127.729 62.5897C127.729 61.1042 127.186 59.5576 124.957 59.5576C124.036 59.5576 123.161 59.8185 122.557 60.216L122.859 61.1042C123.428 60.7453 124.087 60.553 124.76 60.5491C126.255 60.5491 126.424 61.6515 126.424 62.2644V62.4176C123.6 62.4021 122.031 63.3813 122.031 65.1733C122.031 66.2458 122.785 67.3016 124.265 67.3016C124.698 67.31 125.127 67.2142 125.516 67.0224C125.905 66.8306 126.242 66.5483 126.499 66.1991H126.544L126.654 67.134H127.862C127.772 66.5463 127.731 65.9521 127.741 65.3576L127.729 62.5897ZM126.446 64.6415C126.443 64.7877 126.418 64.9327 126.371 65.0711C126.247 65.4393 126.008 65.7583 125.691 65.9814C125.373 66.2044 124.992 66.32 124.604 66.3113C123.925 66.3113 123.352 65.8971 123.352 65.0245C123.352 63.5812 124.997 63.3247 126.446 63.3591V64.6415Z" fill="#5E5E5E"/>
<path d="M134.697 61.1807H134.636L134.591 59.7263H133.43C133.474 60.4158 133.49 61.1696 133.49 62.039V67.1383H134.803V63.1914C134.805 62.981 134.825 62.7712 134.862 62.5641C135.044 61.5527 135.709 60.8332 136.645 60.8332C136.797 60.8309 136.949 60.8466 137.097 60.8799V59.6042C136.974 59.5715 136.847 59.5559 136.72 59.5576C135.829 59.5576 135.029 60.186 134.697 61.1807Z" fill="#5E5E5E"/>
<path d="M140.95 59.5576C138.928 59.5576 137.328 61.0132 137.328 63.4935C137.328 65.8361 138.852 67.3061 140.829 67.3061C142.596 67.3061 144.468 66.1125 144.468 63.3713C144.465 61.1042 143.046 59.5576 140.95 59.5576ZM140.89 66.2957C139.592 66.2957 138.672 65.0745 138.672 63.4479C138.672 62.039 139.352 60.5691 140.921 60.5691C142.49 60.5691 143.11 62.1612 143.11 63.4168C143.107 65.0856 142.155 66.3002 140.888 66.3002L140.89 66.2957Z" fill="#5E5E5E"/>
<path d="M149.553 59.5575C148.375 59.5575 147.53 60.0938 147.062 60.9209H147.032V56.2656H145.717V65.2242C145.717 65.8826 145.686 66.6331 145.656 67.1383H146.804L146.864 65.917H146.909C147.453 66.8974 148.298 67.3104 149.349 67.3104C150.979 67.3104 152.624 65.9936 152.624 63.3446C152.647 61.0897 151.364 59.5575 149.553 59.5575ZM149.085 66.2346C148.119 66.2346 147.35 65.5917 147.089 64.6569C147.053 64.496 147.033 64.332 147.029 64.1673V62.835C147.035 62.6478 147.06 62.4618 147.105 62.2799C147.376 61.254 148.221 60.6267 149.127 60.6267C150.546 60.6267 151.301 61.8979 151.301 63.3823C151.304 65.0855 150.474 66.2346 149.085 66.2346Z" fill="#5E5E5E"/>
<path d="M156.982 59.5576C154.96 59.5576 153.359 61.0132 153.359 63.4935C153.359 65.8361 154.884 67.3061 156.861 67.3061C158.627 67.3061 160.499 66.1125 160.499 63.3713C160.499 61.1042 159.08 59.5576 156.982 59.5576ZM156.918 66.3002C155.621 66.3002 154.7 65.0789 154.7 63.4524C154.7 62.0435 155.38 60.5735 156.949 60.5735C158.518 60.5735 159.136 62.1612 159.136 63.4135C159.136 65.0856 158.19 66.3002 156.918 66.3002Z" fill="#5E5E5E"/>
<path d="M164.841 60.7485V59.7227H162.939V57.5977L161.64 57.9496V59.726H160.508V60.7485H161.64V64.791C161.64 65.6647 161.776 66.3231 162.154 66.7206C162.471 67.0881 162.969 67.2879 163.587 67.2879C163.988 67.3009 164.387 67.2384 164.764 67.1036L164.704 66.0933C164.453 66.1575 164.194 66.1881 163.934 66.1843C163.195 66.1843 162.936 65.6647 162.936 64.741V60.7485H164.841Z" fill="#5E5E5E"/>
<path d="M49.7587 50.7432H33.9007C32.2685 50.7432 30.9453 52.0679 30.9453 53.702V69.8694C30.9453 71.5036 32.2685 72.8283 33.9007 72.8283H49.7587C51.3909 72.8283 52.7141 71.5036 52.7141 69.8694V53.702C52.7141 52.0679 51.3909 50.7432 49.7587 50.7432Z" fill="white"/>
<path d="M49.7767 73.5844H33.8798C31.8505 73.5844 30.1992 71.9091 30.1992 69.8496V53.7221C30.1992 51.6625 31.8505 49.9872 33.8798 49.9872H49.7767C50.7585 49.996 51.6968 50.394 52.386 51.094C53.0753 51.7941 53.4593 52.7391 53.454 53.7221V69.8529C53.4584 70.8353 53.074 71.7794 52.3849 72.4788C51.6957 73.1781 50.7579 73.5756 49.7767 73.5844ZM33.8798 51.4993C33.2956 51.504 32.7371 51.7404 32.3265 52.1566C31.916 52.5728 31.687 53.1349 31.6897 53.7198V69.8529C31.687 70.4378 31.916 71 32.3265 71.4162C32.7371 71.8324 33.2956 72.0687 33.8798 72.0734H49.7767C50.3611 72.069 50.92 71.8328 51.3307 71.4165C51.7415 71.0003 51.9707 70.438 51.968 69.8529V53.7221C51.9707 53.1369 51.7415 52.5746 51.3307 52.1584C50.92 51.7422 50.3611 51.506 49.7767 51.5016L33.8798 51.4993Z" fill="#5E5E5E"/>
</svg>
