<svg width="20" height="20" viewBox="0 0 20 20" fill="none" xmlns="http://www.w3.org/2000/svg">
<path d="M3.13955 9.31646H10.0003V10.2437H3.13955V9.31646ZM1.99609 6.55566L7.71336 6.5557V7.49392H1.99609V6.55566Z" fill="#4F595E"/>
<path fill-rule="evenodd" clip-rule="evenodd" d="M16.2434 5.65943L17.9585 9.66152C17.9891 9.73268 18.0049 9.80932 18.0049 9.88678L17.9892 13.734C17.9892 13.8857 17.9289 14.0311 17.8217 14.1383C17.7145 14.2455 17.5691 14.3057 17.4174 14.3057H16.2085C16.0841 14.7964 15.7997 15.3865 15.4002 15.6973C15.0007 16.0082 14.509 16.177 14.0028 16.177C13.4966 16.177 13.0048 16.0082 12.6053 15.6973C12.2058 15.3865 11.8686 14.8268 11.797 14.3057H8.20432C8.117 14.8984 7.73423 15.4692 7.27354 15.7816C6.81286 16.094 6.25405 16.2277 5.70187 16.1575C5.14969 16.0874 4.64204 15.8183 4.27409 15.4006C3.90613 14.983 3.70312 14.4455 3.70312 13.8889C3.70312 13.3322 3.90613 12.7947 4.27409 12.3771C4.64204 11.9594 5.14969 11.6903 5.70187 11.6202C6.25405 11.55 6.81286 11.6837 7.27354 11.9961C7.73423 12.3085 8.06516 12.7782 8.20432 13.3171H11.797C11.8731 13.0257 12.0062 12.7521 12.1885 12.5123C12.3708 12.2725 12.7536 11.9614 13.0608 11.8269V5.44124C13.0608 5.05464 12.7474 4.74124 12.3608 4.74124H4.28342V3.82331H12.4094C12.9027 3.82331 13.2649 3.92386 13.5672 4.22611C13.7961 4.45506 14.0028 4.78345 14.0028 5.31296H15.7179C15.8298 5.3129 15.9393 5.34571 16.0327 5.4073C16.1261 5.46889 16.1993 5.55657 16.2434 5.65943ZM15.5821 6.32003H14.0028V9.31505V10.4585V11.602C14.5084 11.6034 14.9993 11.7725 15.3985 12.0829C15.7977 12.3933 16.1142 12.7813 16.2085 13.3171H17.0948V10.4585V9.88678L16.7536 9.1112L15.5821 6.32003ZM15.5135 13.8889C15.5135 14.7518 14.8741 15.4006 14.0112 15.4006C13.1483 15.4006 12.4979 14.7518 12.4979 13.8889C12.4979 13.026 13.1483 12.3771 14.0112 12.3771C14.8741 12.3771 15.5135 13.026 15.5135 13.8889ZM5.99986 15.4006C6.86276 15.4006 7.50403 14.7518 7.50403 13.8889C7.50403 13.026 6.86276 12.3771 5.99986 12.3771C5.13696 12.3771 4.47813 13.026 4.47813 13.8889C4.47813 14.7518 5.13696 15.4006 5.99986 15.4006Z" fill="#4F595E"/>
</svg>
