<svg width="28" height="28" viewBox="0 0 28 28" fill="none" xmlns="http://www.w3.org/2000/svg">
<path fill-rule="evenodd" clip-rule="evenodd" d="M16.9624 14.3589C16.9624 13.8137 17.4044 13.3718 17.9496 13.3718H25.847C26.3922 13.3718 26.8342 13.8137 26.8342 14.3589C26.8342 14.9041 26.3922 15.3461 25.847 15.3461H18.9368V17.3205H25.847C26.3922 17.3205 26.8342 17.7625 26.8342 18.3077C26.8342 18.8529 26.3922 19.2948 25.847 19.2948H17.9496C17.4044 19.2948 16.9624 18.8529 16.9624 18.3077V14.3589Z" fill="#4F595E"/>
<path fill-rule="evenodd" clip-rule="evenodd" d="M4.12804 5.47424C3.86623 5.47424 3.61513 5.57824 3.43 5.76338C3.24487 5.94851 3.14086 6.1996 3.14086 6.46142C3.14086 6.72323 3.24487 6.97432 3.43 7.15946C3.61513 7.34459 3.86623 7.4486 4.12804 7.4486H22.8845V5.47424H4.12804ZM24.8588 7.4486V4.48706C24.8588 3.94185 24.4168 3.49988 23.8716 3.49988H4.12804C3.34259 3.49988 2.58931 3.8119 2.03392 4.36729C1.47852 4.92269 1.1665 5.67597 1.1665 6.46142V22.2563C1.1665 23.0417 1.47852 23.795 2.03392 24.3504C2.58932 24.9058 3.3426 25.2178 4.12804 25.2178H25.846C26.3912 25.2178 26.8332 24.7759 26.8332 24.2306V8.43578C26.8332 7.89057 26.3912 7.4486 25.846 7.4486H24.8588ZM4.12804 9.42296C3.78851 9.42296 3.45499 9.36465 3.14086 9.25358V22.2563C3.14086 22.5181 3.24487 22.7692 3.43 22.9543C3.61513 23.1395 3.86622 23.2435 4.12804 23.2435H24.8588V9.42296H4.12804Z" fill="#4F595E"/>
</svg>
