<svg width="13" height="12" viewBox="0 0 13 12" fill="none" xmlns="http://www.w3.org/2000/svg">
<path fill-rule="evenodd" clip-rule="evenodd" d="M6.5 1.5C4.01472 1.5 2 3.51472 2 6C2 8.48528 4.01472 10.5 6.5 10.5C8.98528 10.5 11 8.48528 11 6C11 3.51472 8.98528 1.5 6.5 1.5ZM1 6C1 2.96243 3.46243 0.5 6.5 0.5C9.53757 0.5 12 2.96243 12 6C12 9.03757 9.53757 11.5 6.5 11.5C3.46243 11.5 1 9.03757 1 6Z" fill="#7B7975"/>
<path fill-rule="evenodd" clip-rule="evenodd" d="M6.5 2.5C6.77614 2.5 7 2.72386 7 3V5.69098L8.72361 6.55279C8.9706 6.67628 9.07071 6.97662 8.94721 7.22361C8.82372 7.4706 8.52338 7.57071 8.27639 7.44721L6.27639 6.44721C6.107 6.36252 6 6.18939 6 6V3C6 2.72386 6.22386 2.5 6.5 2.5Z" fill="#7B7975"/>
</svg>
