<svg width="237" height="33" viewBox="0 0 237 33" fill="none" xmlns="http://www.w3.org/2000/svg">
<g clip-path="url(#clip0_30_22702)">
<path d="M4.202 25.957L20.78 29.14L22.068 26.917L7.332 20.55L4.202 25.957ZM11.882 12.69L24.777 22.244L26.065 20.02L15.013 7.282L11.883 12.69H11.882ZM8.03 19.348L22.766 25.717L24.079 23.445L11.184 13.892L8.03 19.348ZM19.227 0L15.747 6.02L26.8 18.76L28.438 15.936L19.227 0ZM0 33.227H18.42L20.057 30.403L3.48 27.22L0 33.227ZM29.231 25.789L33.541 33.227H38.441L29.231 17.305L20.021 33.227H24.921L29.231 25.789Z" fill="#FCAF17"/>
<path d="M61.819 15.803H68.839L70.452 12.955H61.82L61.819 15.803ZM61.819 7.895V10.743H71.729L73.378 7.895H61.819ZM210.603 11.272V2.86H207.496V15.803H210.097L217.573 7.331V15.803H220.679V2.86H217.935L210.603 11.272ZM80.084 2.86L72.644 15.803H76.304L81.204 7.258L86.14 15.803H89.993L82.553 2.86H80.084ZM57.728 12.954L50.288 0H47.748L40.307 12.954H38.441V19.6H41.402V15.802H56.632V19.6H59.594V12.954H57.728ZM44.015 12.954L48.915 4.398L53.851 12.954H44.015ZM159.266 2.86H144.807V5.708H157.604L159.266 2.86ZM76.267 2.86H61.82V5.708H74.618L76.267 2.86ZM234.644 2.86L227.312 11.272V2.86H224.206V15.803H226.818L234.283 7.331V15.803H237.389V2.86H234.644ZM200.862 7.895H194.06V2.86H190.953V15.803H194.06V10.743H200.862V15.803H203.968V2.86H200.862V7.895ZM163.071 2.86L155.631 15.803H159.303L164.203 7.258L169.139 15.803H172.98L165.539 2.86H163.071ZM132.37 7.5H127.651V2.849H124.545V15.803H132.346C134.453 15.803 136.644 14.638 136.644 11.585C136.632 7.572 133.815 7.5 132.37 7.5ZM132.19 13.064H127.639V10.18H132.19C132.719 10.18 133.526 10.324 133.526 11.622C133.526 12.823 132.864 13.064 132.19 13.064ZM141.292 2.86H138.222V15.815H141.292V2.86ZM97.819 2.547C92.629 2.547 90.174 5.72 90.174 9.265C90.174 12.966 92.569 15.982 97.819 15.982C100.106 15.982 105.403 14.925 105.403 9.265C105.403 5.564 103.032 2.547 97.819 2.547ZM97.783 13.134C94.785 13.134 93.521 11.416 93.521 9.301C93.521 6.981 94.965 5.431 97.783 5.431C100.961 5.431 102.044 6.981 102.044 9.301C102.044 12.077 99.962 13.134 97.783 13.134ZM144.807 15.803H151.826L153.451 12.955H144.807V15.803ZM144.807 7.895V10.743H154.715L156.376 7.895H144.807ZM177.35 11.2V2.86H174.244V15.803H176.857L184.333 7.403V15.803H187.439V2.86H184.827L177.35 11.2ZM118.959 8.172C119.777 7.823 120.476 7.259 120.476 5.852C120.476 3.172 118.224 2.86 116.635 2.86H108.244V15.815H116.78C120.692 15.815 121.499 13.664 121.499 11.693C121.511 9.47 120.247 8.556 118.959 8.172ZM111.314 5.6H116.286C117.032 5.6 117.345 5.985 117.345 6.73C117.345 7.499 116.852 7.895 116.286 7.895H111.314V5.6ZM116.78 13.063H111.314V10.287H116.78C117.658 10.287 118.297 10.503 118.297 11.657C118.297 12.57 117.911 13.063 116.78 13.063Z" fill="black"/>
</g>
<defs>
<clipPath id="clip0_30_22702">
<rect width="237" height="33" fill="white"/>
</clipPath>
</defs>
</svg>
