<svg width="68" height="68" viewBox="0 0 68 68" fill="none" xmlns="http://www.w3.org/2000/svg">
<g clip-path="url(#clip0_30_22280)">
<path d="M62.3116 0H5.42178C2.42741 0 0 2.42742 0 5.42178V62.3117C0 65.306 2.42741 67.7334 5.42178 67.7334H62.3116C65.306 67.7334 67.7334 65.306 67.7334 62.3117V5.42178C67.7334 2.42742 65.306 0 62.3116 0Z" fill="#0C54A0"/>
<path d="M63.0148 33.8668C63.0148 49.9644 49.9651 63.0136 33.8676 63.0136C17.7702 63.0136 4.7207 49.9644 4.7207 33.8668C4.7207 17.7693 17.7702 4.71973 33.8676 4.71973C49.9651 4.71973 63.0148 17.7693 63.0148 33.8668Z" fill="#FFF01E"/>
<path d="M31.5938 28.7021H25.5439L18.4911 35.9219V21.2666H13.0762V46.3841H18.4911V38.4622L25.2762 46.3841H32.1287L23.7387 36.6905L31.5938 28.7021Z" fill="#0C54A0"/>
<path d="M35.7386 27.0644C34.9138 27.0644 34.2121 26.7755 33.6328 26.1957C33.0529 25.6168 32.7637 24.9144 32.7637 24.0901C32.7637 23.2656 33.053 22.564 33.6328 21.9841C34.212 21.4052 34.9138 21.1152 35.7386 21.1152C36.5627 21.1152 37.2645 21.4052 37.8443 21.9841C38.4236 22.564 38.7131 23.2656 38.7131 24.0901C38.7131 24.9144 38.4236 25.6167 37.8443 26.1957C37.2645 26.7756 36.5627 27.0644 35.7386 27.0644Z" fill="#F52D0E"/>
<path d="M38.4462 46.3841H33.0312V28.7021H38.4462V46.3841Z" fill="#0C54A0"/>
<path d="M54.6571 33.2146V28.7022H49.7101V21.2668H44.2952V28.7022H40.7188V33.2146H44.2952V41.003C44.2952 42.8528 44.8352 44.2511 45.9164 45.1978C46.9972 46.1454 48.5958 46.6184 50.713 46.6184C51.2251 46.6184 51.8603 46.5684 52.6184 46.4681C53.3756 46.3678 53.9997 46.2395 54.4902 46.0834V41.7048C54.0439 41.8388 53.6319 41.9334 53.2533 41.989C52.8741 42.0448 52.4731 42.0725 52.05 42.0725C51.1811 42.0725 50.5739 41.9113 50.2283 41.5877C49.8825 41.265 49.7102 40.7136 49.7102 39.9333V33.2146H54.6571Z" fill="#0C54A0"/>
</g>
<defs>
<clipPath id="clip0_30_22280">
<rect width="68" height="68" fill="white"/>
</clipPath>
</defs>
</svg>
