<svg width="13" height="12" viewBox="0 0 13 12" fill="none" xmlns="http://www.w3.org/2000/svg">
<path fill-rule="evenodd" clip-rule="evenodd" d="M2.5 2.5C2.22614 2.5 2 2.72614 2 3V9C2 9.27386 2.22614 9.5 2.5 9.5H10.5C10.7739 9.5 11 9.27386 11 9V3C11 2.72614 10.7739 2.5 10.5 2.5H2.5ZM1 3C1 2.17386 1.67386 1.5 2.5 1.5H10.5C11.3261 1.5 12 2.17386 12 3V9C12 9.82614 11.3261 10.5 10.5 10.5H2.5C1.67386 10.5 1 9.82614 1 9V3Z" fill="#7B7975"/>
<path fill-rule="evenodd" clip-rule="evenodd" d="M1.09037 2.71325C1.24872 2.48703 1.56049 2.43201 1.78671 2.59037L6.49998 5.88965L11.2133 2.59037C11.4395 2.43201 11.7512 2.48703 11.9096 2.71325C12.068 2.93948 12.0129 3.25124 11.7867 3.4096L6.78671 6.9096C6.61455 7.03011 6.38541 7.03011 6.21325 6.9096L1.21325 3.4096C0.987026 3.25124 0.932009 2.93948 1.09037 2.71325Z" fill="#7B7975"/>
</svg>
