<svg width="20" height="20" viewBox="0 0 20 20" fill="none" xmlns="http://www.w3.org/2000/svg">
<g clip-path="url(#clip0_3985_26636)">
<path d="M18.3336 2.22266H1.66688C1.51954 2.22266 1.37823 2.28119 1.27405 2.38537C1.16986 2.48956 1.11133 2.63087 1.11133 2.77821V3.70599C1.11143 3.8372 1.1375 3.9671 1.18804 4.08819C1.23857 4.20929 1.31257 4.31918 1.40577 4.41155L7.778 10.8782V16.5449L8.88911 16.9671V10.556C8.88953 10.4829 8.87551 10.4104 8.84787 10.3427C8.82022 10.275 8.77948 10.2135 8.728 10.1615L2.22244 3.66155V3.33377H17.778V3.67266L11.2947 10.1615C11.2391 10.2116 11.1943 10.2723 11.1628 10.3401C11.1313 10.4079 11.1138 10.4813 11.1113 10.556V17.8949L12.2224 18.3338V10.8338L18.5947 4.44488C18.6894 4.35017 18.7642 4.2375 18.8148 4.11348C18.8653 3.98945 18.8906 3.85658 18.8891 3.72266V2.77821C18.8891 2.63087 18.8306 2.48956 18.7264 2.38537C18.6222 2.28119 18.4809 2.22266 18.3336 2.22266Z" fill="#2E2C2F"/>
</g>
<defs>
<clipPath id="clip0_3985_26636">
<rect width="20" height="20" fill="white"/>
</clipPath>
</defs>
</svg>
