<svg width="20" height="20" viewBox="0 0 20 20" fill="none" xmlns="http://www.w3.org/2000/svg">
<path d="M8.5 16.325C8.5 16.422 8.57 16.5 8.656 16.5H10.844C10.93 16.5 11 16.422 11 16.325V15.175C11 15.078 10.93 15 10.844 15H8.656C8.57 15 8.5 15.078 8.5 15.175V16.325Z" fill="#2E2C2F"/>
<path d="M14 13.489L14.371 13.224L14.3725 13.2225C15.0899 12.7117 15.6495 12.0097 15.9875 11.1965C16.2269 10.6343 16.3534 10.0305 16.36 9.4195L16.385 8.0395V8.03C16.3852 7.43156 16.1872 6.8499 15.8221 6.37577C15.4569 5.90164 14.9451 5.5617 14.3665 5.409C14.1229 4.43531 13.5609 3.57095 12.7697 2.95329C11.9786 2.33563 11.0037 2.00009 10 2L8.5 2C7.30653 2 6.16193 2.47411 5.31802 3.31802C4.47411 4.16193 4 5.30653 4 6.5V10C3.99942 10.6332 4.13276 11.2594 4.39127 11.8374C4.64979 12.4155 5.02763 12.9323 5.5 13.354V16.5245C5.5 17.2545 6.059 18 6.9305 18H12.57C13.46 18 14 17.233 14 16.5245V13.489ZM6.5 12.8725C6.03671 12.5503 5.65829 12.1208 5.39708 11.6205C5.13587 11.1203 4.99963 10.5643 5 10V6.5C5 5.57174 5.36875 4.6815 6.02513 4.02513C6.68151 3.36875 7.57174 3 8.5 3H10C10.8986 3.0002 11.7627 3.34592 12.4135 3.9656C13.0643 4.58528 13.4519 5.43147 13.496 6.329H13.5V8.75C13.5 8.8163 13.5263 8.87989 13.5732 8.92678C13.6201 8.97366 13.6837 9 13.75 9C13.8163 9 13.8799 8.97366 13.9268 8.92678C13.9737 8.87989 14 8.8163 14 8.75V6.351C14.3899 6.42648 14.7414 6.63533 14.9941 6.9417C15.2468 7.24807 15.385 7.63285 15.385 8.03L15.36 9.405C15.3553 9.8882 15.255 10.3657 15.065 10.81C14.7987 11.4525 14.3568 12.007 13.79 12.41L13 12.9745V13.5H6.5V12.8725ZM6.5 14.5H13V16.5245C13 16.7845 12.81 17 12.5695 17H6.93C6.695 17 6.4995 16.79 6.4995 16.5245L6.5 14.5Z" fill="#2E2C2F"/>
</svg>
