<svg width="28" height="28" viewBox="0 0 28 28" fill="none" xmlns="http://www.w3.org/2000/svg">
<path d="M2.80176 8.39988C2.80176 7.65728 3.09676 6.94509 3.62186 6.41998C4.14696 5.89488 4.85915 5.59988 5.60176 5.59988H22.4018C23.1444 5.59988 23.8566 5.89488 24.3817 6.41998C24.9068 6.94509 25.2018 7.65728 25.2018 8.39988V19.5999C25.2018 20.3425 24.9068 21.0547 24.3817 21.5798C23.8566 22.1049 23.1444 22.3999 22.4018 22.3999H5.60176C4.85915 22.3999 4.14696 22.1049 3.62186 21.5798C3.09676 21.0547 2.80176 20.3425 2.80176 19.5999V8.39988ZM5.60176 6.99988C5.23045 6.99988 4.87436 7.14738 4.61181 7.40993C4.34926 7.67249 4.20176 8.02858 4.20176 8.39988V9.79988H23.8018V8.39988C23.8018 8.02858 23.6543 7.67249 23.3917 7.40993C23.1292 7.14738 22.7731 6.99988 22.4018 6.99988H5.60176ZM23.8018 11.1894H4.20176V19.5999C4.20176 19.9712 4.34926 20.3273 4.61181 20.5898C4.87436 20.8524 5.23045 20.9999 5.60176 20.9999H22.4018C22.7731 20.9999 23.1292 20.8524 23.3917 20.5898C23.6543 20.3273 23.8018 19.9712 23.8018 19.5999V11.1894Z" fill="#2E2C2F"/>
<path d="M5.60176 19.5999V18.1764H11.1822V19.5999H5.60176Z" fill="#2E2C2F"/>
</svg>
