<svg width="28" height="28" viewBox="0 0 28 28" fill="none" xmlns="http://www.w3.org/2000/svg">
<path d="M25.8282 11.1511C25.7141 10.7973 25.5044 10.4818 25.2221 10.2398C24.9399 9.99771 24.5962 9.83849 24.229 9.77971L18.4678 8.84343L15.7971 3.65362C15.627 3.32323 15.3692 3.04608 15.0519 2.85259C14.7347 2.6591 14.3702 2.55673 13.9986 2.55673C13.627 2.55673 13.2625 2.6591 12.9453 2.85259C12.628 3.04608 12.3702 3.32323 12.2001 3.65362L9.52935 8.84343L3.76829 9.77971C3.40151 9.83941 3.05825 9.99898 2.77619 10.2409C2.49413 10.4829 2.28417 10.7978 2.16933 11.1512C2.05449 11.5047 2.03922 11.8829 2.1252 12.2444C2.21117 12.6059 2.39507 12.9368 2.65671 13.2007L6.76724 17.3444L5.87753 23.1129C5.82044 23.4803 5.86579 23.8563 6.00858 24.1996C6.15137 24.5429 6.38607 24.8402 6.68688 25.0587C6.98768 25.2773 7.34293 25.4086 7.71356 25.4383C8.08419 25.4681 8.45583 25.395 8.78761 25.2272L13.9986 22.5983L19.2097 25.2272C19.5415 25.3946 19.9131 25.4675 20.2836 25.4376C20.6541 25.4077 21.0091 25.2763 21.3098 25.0579C21.6105 24.8394 21.8452 24.5423 21.9881 24.1992C22.131 23.856 22.1766 23.4802 22.1198 23.1129L21.2301 17.3444L25.3406 13.2007C25.6031 12.9373 25.7876 12.6065 25.8736 12.2447C25.9597 11.883 25.9439 11.5045 25.8282 11.1511ZM24.3259 12.271L19.8594 16.8513L20.7988 23.4114C20.8114 23.4899 20.7696 23.7156 20.7392 23.7891C20.7088 23.8626 20.5987 23.9431 20.5343 23.9899C20.47 24.0367 20.3629 24.0625 20.2836 24.0687C20.2042 24.0749 19.9303 24.0589 19.8594 24.0227L13.9986 21.0968L8.142 24.0133C8.07114 24.0495 7.78899 24.0524 7.70966 24.0462C7.63032 24.04 7.52248 23.9726 7.4581 23.9259C7.39372 23.8791 7.3518 23.7697 7.32139 23.6962C7.29098 23.6226 7.30884 23.481 7.32139 23.4024L8.142 16.8513L3.65418 12.1807C3.58935 12.0962 3.54307 11.9796 3.52474 11.9023C3.50641 11.8251 3.50021 11.6995 3.52474 11.624C3.54926 11.5485 3.56897 11.4536 3.65418 11.3804C3.7144 11.3287 3.8341 11.2442 3.91243 11.2313L10.4205 10.1177L13.5219 4.18546C13.5582 4.11484 13.6631 4.02716 13.7309 3.9858C13.7987 3.94444 13.9192 3.92119 13.9986 3.92119C14.078 3.92119 14.185 3.94444 14.2528 3.9858C14.3206 4.02716 14.4178 4.11484 14.4541 4.18546L17.641 10.1177L23.9521 11.1036C24.1015 11.1409 24.2525 11.2413 24.3624 11.3621C24.4309 11.4375 24.457 11.5094 24.4753 11.592C24.4937 11.6746 24.4937 11.8376 24.4753 11.9148C24.457 11.992 24.397 12.2027 24.3259 12.271Z" fill="#2E2C2F"/>
</svg>
