<svg width="341" height="76" viewBox="0 0 341 76" fill="none" xmlns="http://www.w3.org/2000/svg">
<path d="M16.3308 46.1732L7.68983 21.2397V19.0629H15.2754V4.68329H6.10675V46.1732H0.5V0H15.4733C17.716 0 19.2331 0.373784 20.0247 1.12135C20.5963 1.69302 20.8822 2.68245 20.8822 4.08963V19.7885C20.8822 22.383 19.6069 23.6803 17.0564 23.6803H14.0881L22.0035 46.1732H16.3308Z" fill="#F4F2F5"/>
<path d="M48.313 41.8857C48.313 43.2049 48.0491 44.1724 47.5215 44.788C46.8179 45.7115 45.5206 46.1732 43.6297 46.1732H31.9545C29.272 46.1732 27.9308 44.81 27.9308 42.0836V0H33.5376V41.4899H42.7062V0H48.313V41.8857Z" fill="#F4F2F5"/>
<path d="M74.2957 42.0836C74.2957 43.183 74.0099 44.0625 73.4382 44.7221C72.6907 45.6895 71.4814 46.1732 69.8103 46.1732H59.9161C56.7939 46.1732 55.2328 44.832 55.2328 42.1496V29.7488H60.8395V41.4899H68.8869V29.9466L56.3541 16.6883C55.6066 15.8528 55.2328 14.7095 55.2328 13.2583V3.69386C55.2328 2.68244 55.6505 1.82494 56.4861 1.12135C57.4095 0.373784 58.6188 0 60.114 0H69.6124C72.7346 0 74.2957 1.3852 74.2957 4.15559V13.852H68.8209V4.68329H60.8395V13.5222L72.6467 25.923C72.8226 26.0989 72.9765 26.2968 73.1084 26.5166C73.3283 26.8244 73.5262 27.1103 73.7021 27.3741C74.0979 28.2096 74.2957 29.0452 74.2957 29.8807V42.0836Z" fill="#F4F2F5"/>
<path d="M100.309 42.0836C100.309 43.183 100.024 44.0625 99.4519 44.7221C98.7043 45.6895 97.495 46.1732 95.824 46.1732H85.9297C82.8076 46.1732 81.2465 44.832 81.2465 42.1496V29.7488H86.8532V41.4899H94.9005V29.9466L82.3678 16.6883C81.6202 15.8528 81.2465 14.7095 81.2465 13.2583V3.69386C81.2465 2.68244 81.6642 1.82494 82.4997 1.12135C83.4232 0.373784 84.6325 0 86.1276 0H95.6261C98.7483 0 100.309 1.3852 100.309 4.15559V13.852H94.8346V4.68329H86.8532V13.5222L98.6604 25.923C98.8363 26.0989 98.9902 26.2968 99.1221 26.5166C99.342 26.8244 99.5398 27.1103 99.7158 27.3741C100.112 28.2096 100.309 29.0452 100.309 29.8807V42.0836Z" fill="#F4F2F5"/>
<path d="M107.26 46.1732V0H112.867V46.1732H107.26Z" fill="#F4F2F5"/>
<path d="M160.506 46.1732L149.424 17.3479V46.1732H144.016V0H147.578L158.989 29.353V0H164.398V46.1732H160.506Z" fill="#F4F2F5"/>
<path d="M180.17 4.68329V19.8545H189.734V24.4718H180.17V46.1732H174.563V0H190.46V4.68329H180.17Z" fill="#F4F2F5"/>
<path d="M197.371 46.1732V0H202.978V46.1732H197.371Z" fill="#F4F2F5"/>
<path d="M232.257 41.424C232.257 44.5901 230.608 46.1732 227.31 46.1732H216.756C214.953 46.1732 213.7 45.8434 212.996 45.1838C212.249 44.5242 211.875 43.3369 211.875 41.6219V5.07906C211.875 3.14418 212.271 1.82494 213.062 1.12135C213.854 0.373784 215.261 0 217.284 0H226.914C228.761 0 230.058 0.351797 230.806 1.05539C231.509 1.75898 231.861 2.96828 231.861 4.68329V13.786H226.254V4.68329H217.481V41.4899H226.65V27.9018H222.033V22.7568H232.257V41.424Z" fill="#F4F2F5"/>
<path d="M255.905 46.1732V24.4718H246.736V46.1732H241.129V0H246.736V19.8545H255.905V0H261.511V46.1732H255.905Z" fill="#F4F2F5"/>
<path d="M280.436 4.68329V46.1732H274.83V4.68329H267.772V0H287.56V4.68329H280.436Z" fill="#F4F2F5"/>
<path d="M299.438 4.68329V19.8545H309.003V24.4718H299.438V41.4899H309.465V46.1732H293.832V0H309.465V4.68329H299.438Z" fill="#F4F2F5"/>
<path d="M333.828 46.1732L325.187 21.2397V19.0629H332.773V4.68329H323.604V46.1732H317.997V0H332.971C335.213 0 336.731 0.373784 337.522 1.12135C338.094 1.69302 338.38 2.68245 338.38 4.08963V19.7885C338.38 22.383 337.104 23.6803 334.554 23.6803H331.585L339.501 46.1732H333.828Z" fill="#F4F2F5"/>
<path d="M134.917 46.1732L133.004 36.147H123.703L121.526 46.1732H116.184L126.474 0H130.695L140.787 46.1732H134.917ZM128.387 14.1158L124.759 31.3318H131.817L128.387 14.1158Z" fill="#F4F2F5"/>
<path d="M56.5 72.7067C56.5 73.6356 57.1657 73.8889 58.497 73.8889H63.2473C64.9114 73.8889 65.3653 73.6356 65.3653 72.5589V60.3989C65.3653 59.4489 64.8812 59.1111 63.4288 59.1111H58.618C57.1959 59.1111 56.5 59.4067 56.5 60.2933V62.9956H59.2231V60.7578H62.6724V65.5078H59.2231V67.1544H62.6724V72.2422H59.2231V69.6667H56.5V72.7067Z" fill="#F4F2F5"/>
<path d="M77.7567 73.8889L73.1576 66.0356L77.212 59.1111H74.4889L72.855 62.0244C72.1289 63.3122 71.3725 64.9167 71.3725 64.9167V59.1111H68.6796V73.8889H71.3725V67.45C71.3725 67.45 72.2196 69.2656 73.0063 70.7433L74.7007 73.8889H77.7567Z" fill="#F4F2F5"/>
<path d="M85.2859 69.0122C86.5567 66.0356 86.8895 64.8744 86.8895 64.8744V73.8889H89.5824V59.1111H86.8895L84.7413 64.2833C84.0151 65.9933 83.1679 68.02 83.1679 68.02V59.1111H80.4751V73.8889H83.1679L85.2859 69.0122Z" fill="#F4F2F5"/>
<path d="M102.028 73.8889V59.1111H92.9206V73.8889H95.6134V60.7578H99.4258V73.8889H102.028Z" fill="#F4F2F5"/>
<path d="M110.177 69.0122C111.448 66.0356 111.781 64.8744 111.781 64.8744V73.8889H114.473V59.1111H111.781L109.632 64.2833C108.906 65.9933 108.059 68.02 108.059 68.02V59.1111H105.366V73.8889H108.059L110.177 69.0122Z" fill="#F4F2F5"/>
<path d="M126.677 65.9722V60.4833C126.677 59.5756 126.163 59.1111 124.589 59.1111H117.812V73.8889H120.504V67.1544H124.589C125.92 67.1544 126.677 66.8589 126.677 65.9722ZM123.954 65.5078H120.504V60.7578H123.954V65.5078Z" fill="#F4F2F5"/>
<path d="M139.099 72.6222V60.2933C139.099 59.4489 138.524 59.1111 137.102 59.1111H131.928C130.506 59.1111 129.991 59.5122 129.991 60.3989V72.6433C129.991 73.3822 130.657 73.8889 131.837 73.8889H137.011C138.251 73.8889 139.099 73.5511 139.099 72.6222ZM136.406 72.2422H132.684V60.7578H136.406V72.2422Z" fill="#F4F2F5"/>
<path d="M151.302 72.6644V67.6611C151.302 67.0278 150.727 66.7744 149.789 66.3733C150.697 65.9722 151.302 65.5078 151.302 65.0644V60.3567C151.302 59.4278 150.606 59.1111 149.366 59.1111H142.437V73.8889H149.214C150.727 73.8889 151.302 73.5511 151.302 72.6644ZM148.579 65.0011L147.822 65.5078H145.13V60.7578H148.579V65.0011ZM148.579 72.2422H145.13V67.1544H147.853L148.579 67.7244V72.2422Z" fill="#F4F2F5"/>
<path d="M163.724 72.6222V60.2933C163.724 59.4489 163.149 59.1111 161.727 59.1111H156.553C155.131 59.1111 154.616 59.5122 154.616 60.3989V72.6433C154.616 73.3822 155.282 73.8889 156.462 73.8889H161.636C162.876 73.8889 163.724 73.5511 163.724 72.6222ZM161.031 72.2422H157.309V60.7578H161.031V72.2422Z" fill="#F4F2F5"/>
<path d="M175.927 73.8889V59.1111H173.234V66.5H169.755V59.1111H167.062V66.9011C167.062 67.7667 167.879 68.1467 168.938 68.1467H173.234V73.8889H175.927Z" fill="#F4F2F5"/>
<path d="M188.349 73.8889V59.1111H185.656V65.5078H181.934V59.1111H179.241V73.8889H181.934V67.1544H185.656V73.8889H188.349Z" fill="#F4F2F5"/>
<path d="M200.552 66.69C200.552 65.8033 199.796 65.5078 198.465 65.5078H194.38V59.1111H191.687V73.8889H198.465C200.038 73.8889 200.552 73.4244 200.552 72.5167V66.69ZM197.829 72.2422H194.38V67.1544H197.829V72.2422ZM205.061 73.8889V59.1111H202.368V73.8889H205.061Z" fill="#F4F2F5"/>
<path d="M213.198 69.0122C214.469 66.0356 214.802 64.8744 214.802 64.8744V73.8889H217.495V59.1111H214.802L212.654 64.2833C211.927 65.9933 211.08 68.02 211.08 68.02V59.1111H208.387V73.8889H211.08L213.198 69.0122ZM215.8 57H214.076C214.076 57.5067 214.076 57.5278 212.956 57.5278C211.867 57.5278 211.806 57.5067 211.806 57H210.082C210.082 58.4144 210.415 58.52 212.956 58.52C215.498 58.52 215.8 58.3511 215.8 57Z" fill="#F4F2F5"/>
<path d="M237.926 76V72.2422H236.594V59.1111H233.902V72.2422H230.18V59.1111H227.487V73.8889H235.233V76H237.926Z" fill="#F4F2F5"/>
<path d="M247.533 73.8889V72.2422H243.63V67.1544H247.382V65.5078H243.63V60.7578H247.533V59.1111H240.937V73.8889H247.533Z" fill="#F4F2F5"/>
<path d="M259.653 73.8889V59.1111H256.961V65.5078H253.239V59.1111H250.546V73.8889H253.239V67.1544H256.961V73.8889H259.653Z" fill="#F4F2F5"/>
<path d="M270.919 60.7578V59.1111H262.387V60.7578H265.291V73.8889H267.984V60.7578H270.919Z" fill="#F4F2F5"/>
<path d="M282.5 65.9722V60.4833C282.5 59.5756 281.986 59.1111 280.412 59.1111H273.635V73.8889H276.328V67.1544H280.412C281.744 67.1544 282.5 66.8589 282.5 65.9722ZM279.777 65.5078H276.328V60.7578H279.777V65.5078Z" fill="#F4F2F5"/>
</svg>
