<svg width="221" height="49" viewBox="0 0 221 49" fill="none" xmlns="http://www.w3.org/2000/svg">
<path d="M10.7406 29.8683L5.15092 13.7394V12.3313H10.0579V3.0295H4.12687V29.8683H0.5V0H10.1859C11.6366 0 12.618 0.241791 13.13 0.725374C13.4998 1.09517 13.6847 1.73521 13.6847 2.64548V12.8007C13.6847 14.479 12.8598 15.3182 11.2099 15.3182H9.28981L14.4101 29.8683H10.7406Z" fill="#2E2C2F"/>
<path d="M31.429 27.0948C31.429 27.9482 31.2583 28.574 30.917 28.9723C30.4619 29.5696 29.6227 29.8683 28.3995 29.8683H20.8471C19.1119 29.8683 18.2443 28.9865 18.2443 27.2228V0H21.8712V26.8388H27.8022V0H31.429V27.0948Z" fill="#2E2C2F"/>
<path d="M48.2366 27.2228C48.2366 27.934 48.0517 28.5029 47.6819 28.9296C47.1983 29.5554 46.4161 29.8683 45.3351 29.8683H38.9348C36.9151 29.8683 35.9053 29.0007 35.9053 27.2655V19.2437H39.5321V26.8388H44.7378V19.3717L36.6306 10.7953C36.1471 10.2548 35.9053 9.51519 35.9053 8.57647V2.38946C35.9053 1.73521 36.1755 1.18051 36.716 0.725374C37.3133 0.241791 38.0956 0 39.0628 0H45.2071C47.2268 0 48.2366 0.896049 48.2366 2.68815V8.96049H44.6951V3.0295H39.5321V8.74715L47.1699 16.7689C47.2837 16.8827 47.3832 17.0107 47.4686 17.1529C47.6108 17.3521 47.7388 17.537 47.8526 17.7076C48.1086 18.2481 48.2366 18.7886 48.2366 19.3291V27.2228Z" fill="#2E2C2F"/>
<path d="M65.0642 27.2228C65.0642 27.934 64.8793 28.5029 64.5095 28.9296C64.0259 29.5554 63.2436 29.8683 62.1627 29.8683H55.7624C53.7427 29.8683 52.7329 29.0007 52.7329 27.2655V19.2437H56.3597V26.8388H61.5653V19.3717L53.4582 10.7953C52.9746 10.2548 52.7329 9.51519 52.7329 8.57647V2.38946C52.7329 1.73521 53.0031 1.18051 53.5436 0.725374C54.1409 0.241791 54.9232 0 55.8904 0H62.0347C64.0544 0 65.0642 0.896049 65.0642 2.68815V8.96049H61.5227V3.0295H56.3597V8.74715L63.9975 16.7689C64.1113 16.8827 64.2108 17.0107 64.2961 17.1529C64.4384 17.3521 64.5664 17.537 64.6802 17.7076C64.9362 18.2481 65.0642 18.7886 65.0642 19.3291V27.2228Z" fill="#2E2C2F"/>
<path d="M69.5604 29.8683V0H73.1873V29.8683H69.5604Z" fill="#2E2C2F"/>
<path d="M104.003 29.8683L96.8348 11.2219V29.8683H93.3359V0H95.6401L103.022 18.9877V0H106.521V29.8683H104.003Z" fill="#2E2C2F"/>
<path d="M116.723 3.0295V12.8434H122.91V15.8302H116.723V29.8683H113.096V0H123.38V3.0295H116.723Z" fill="#2E2C2F"/>
<path d="M127.85 29.8683V0H131.477V29.8683H127.85Z" fill="#2E2C2F"/>
<path d="M150.417 26.7961C150.417 28.8442 149.35 29.8683 147.217 29.8683H140.39C139.224 29.8683 138.413 29.655 137.958 29.2283C137.474 28.8016 137.232 28.0335 137.232 26.9241V3.28551C137.232 2.03389 137.488 1.18051 138 0.725374C138.512 0.241791 139.423 0 140.731 0H146.961C148.156 0 148.995 0.227569 149.478 0.682705C149.933 1.13784 150.161 1.92011 150.161 3.0295V8.91782H146.534V3.0295H140.859V26.8388H146.79V18.049H143.803V14.7208H150.417V26.7961Z" fill="#2E2C2F"/>
<path d="M165.714 29.8683V15.8302H159.783V29.8683H156.156V0H159.783V12.8434H165.714V0H169.341V29.8683H165.714Z" fill="#2E2C2F"/>
<path d="M181.583 3.0295V29.8683H177.956V3.0295H173.391V0H186.191V3.0295H181.583Z" fill="#2E2C2F"/>
<path d="M193.875 3.0295V12.8434H200.062V15.8302H193.875V26.8388H200.361V29.8683H190.248V0H200.361V3.0295H193.875Z" fill="#2E2C2F"/>
<path d="M216.121 29.8683L210.531 13.7394V12.3313H215.438V3.0295H209.507V29.8683H205.88V0H215.566C217.017 0 217.998 0.241791 218.51 0.725374C218.88 1.09517 219.065 1.73521 219.065 2.64548V12.8007C219.065 14.479 218.24 15.3182 216.59 15.3182H214.67L219.79 29.8683H216.121Z" fill="#2E2C2F"/>
<path d="M87.45 29.8683L86.2126 23.3826H80.1963L78.7882 29.8683H75.332L81.9884 0H84.7192L91.2476 29.8683H87.45ZM83.2258 9.13117L80.879 20.2678H85.4446L83.2258 9.13117Z" fill="#2E2C2F"/>
<path d="M37.5 46.92C37.5 47.5067 37.93 47.6667 38.7901 47.6667H41.8589C42.9339 47.6667 43.2271 47.5067 43.2271 46.8267V39.1467C43.2271 38.5467 42.9144 38.3333 41.9761 38.3333H38.8683C37.9496 38.3333 37.5 38.52 37.5 39.08V40.7867H39.2592V39.3733H41.4875V42.3733H39.2592V43.4133H41.4875V46.6267H39.2592V45H37.5V46.92Z" fill="#2E2C2F"/>
<path d="M51.2322 47.6667L48.2611 42.7067L50.8803 38.3333H49.1212L48.0656 40.1733C47.5965 40.9867 47.1079 42 47.1079 42V38.3333H45.3682V47.6667H47.1079V43.6C47.1079 43.6 47.6552 44.7467 48.1634 45.68L49.258 47.6667H51.2322Z" fill="#2E2C2F"/>
<path d="M56.0962 44.5867C56.9172 42.7067 57.1322 41.9733 57.1322 41.9733V47.6667H58.8718V38.3333H57.1322L55.7444 41.6C55.2753 42.68 54.728 43.96 54.728 43.96V38.3333H52.9883V47.6667H54.728L56.0962 44.5867Z" fill="#2E2C2F"/>
<path d="M66.9118 47.6667V38.3333H61.0283V47.6667H62.768V39.3733H65.2308V47.6667H66.9118Z" fill="#2E2C2F"/>
<path d="M72.1763 44.5867C72.9972 42.7067 73.2122 41.9733 73.2122 41.9733V47.6667H74.9519V38.3333H73.2122L71.8244 41.6C71.3553 42.68 70.808 43.96 70.808 43.96V38.3333H69.0684V47.6667H70.808L72.1763 44.5867Z" fill="#2E2C2F"/>
<path d="M82.8355 42.6667V39.2C82.8355 38.6267 82.5032 38.3333 81.4868 38.3333H77.1084V47.6667H78.848V43.4133H81.4868C82.3469 43.4133 82.8355 43.2267 82.8355 42.6667ZM81.0763 42.3733H78.848V39.3733H81.0763V42.3733Z" fill="#2E2C2F"/>
<path d="M90.8601 46.8667V39.08C90.8601 38.5467 90.4887 38.3333 89.57 38.3333H86.2276C85.3089 38.3333 84.9766 38.5867 84.9766 39.1467V46.88C84.9766 47.3467 85.4066 47.6667 86.169 47.6667H89.5114C90.3128 47.6667 90.8601 47.4533 90.8601 46.8667ZM89.1205 46.6267H86.7163V39.3733H89.1205V46.6267Z" fill="#2E2C2F"/>
<path d="M98.7438 46.8933V43.7333C98.7438 43.3333 98.3724 43.1733 97.7664 42.92C98.3528 42.6667 98.7438 42.3733 98.7438 42.0933V39.12C98.7438 38.5333 98.2942 38.3333 97.4928 38.3333H93.0166V47.6667H97.3951C98.3724 47.6667 98.7438 47.4533 98.7438 46.8933ZM96.9846 42.0533L96.4959 42.3733H94.7563V39.3733H96.9846V42.0533ZM96.9846 46.6267H94.7563V43.4133H96.5155L96.9846 43.7733V46.6267Z" fill="#2E2C2F"/>
<path d="M106.768 46.8667V39.08C106.768 38.5467 106.397 38.3333 105.478 38.3333H102.136C101.217 38.3333 100.885 38.5867 100.885 39.1467V46.88C100.885 47.3467 101.315 47.6667 102.077 47.6667H105.42C106.221 47.6667 106.768 47.4533 106.768 46.8667ZM105.029 46.6267H102.625V39.3733H105.029V46.6267Z" fill="#2E2C2F"/>
<path d="M114.652 47.6667V38.3333H112.912V43H110.665V38.3333H108.925V43.2533C108.925 43.8 109.453 44.04 110.137 44.04H112.912V47.6667H114.652Z" fill="#2E2C2F"/>
<path d="M122.677 47.6667V38.3333H120.937V42.3733H118.533V38.3333H116.793V47.6667H118.533V43.4133H120.937V47.6667H122.677Z" fill="#2E2C2F"/>
<path d="M130.56 43.12C130.56 42.56 130.072 42.3733 129.212 42.3733H126.573V38.3333H124.833V47.6667H129.212C130.228 47.6667 130.56 47.3733 130.56 46.8V43.12ZM128.801 46.6267H126.573V43.4133H128.801V46.6267ZM133.473 47.6667V38.3333H131.733V47.6667H133.473Z" fill="#2E2C2F"/>
<path d="M138.73 44.5867C139.551 42.7067 139.766 41.9733 139.766 41.9733V47.6667H141.505V38.3333H139.766L138.378 41.6C137.909 42.68 137.362 43.96 137.362 43.96V38.3333H135.622V47.6667H137.362L138.73 44.5867ZM140.411 37H139.297C139.297 37.32 139.297 37.3333 138.573 37.3333C137.87 37.3333 137.831 37.32 137.831 37H136.717C136.717 37.8933 136.932 37.96 138.573 37.96C140.215 37.96 140.411 37.8533 140.411 37Z" fill="#2E2C2F"/>
<path d="M154.704 49V46.6267H153.844V38.3333H152.105V46.6267H149.7V38.3333H147.961V47.6667H152.965V49H154.704Z" fill="#2E2C2F"/>
<path d="M160.911 47.6667V46.6267H158.389V43.4133H160.813V42.3733H158.389V39.3733H160.911V38.3333H156.65V47.6667H160.911Z" fill="#2E2C2F"/>
<path d="M168.741 47.6667V38.3333H167.001V42.3733H164.597V38.3333H162.857V47.6667H164.597V43.4133H167.001V47.6667H168.741Z" fill="#2E2C2F"/>
<path d="M176.018 39.3733V38.3333H170.506V39.3733H172.383V47.6667H174.122V39.3733H176.018Z" fill="#2E2C2F"/>
<path d="M183.5 42.6667V39.2C183.5 38.6267 183.168 38.3333 182.151 38.3333H177.773V47.6667H179.513V43.4133H182.151C183.011 43.4133 183.5 43.2267 183.5 42.6667ZM181.741 42.3733H179.513V39.3733H181.741V42.3733Z" fill="#2E2C2F"/>
</svg>
