<svg width="28" height="28" viewBox="0 0 28 28" fill="none" xmlns="http://www.w3.org/2000/svg">
<path d="M14 3.78313C14.9536 3.78313 15.8682 4.16757 16.5425 4.85187C17.2168 5.53616 17.5957 6.46427 17.5957 7.43202V8.16179H10.4043V7.43202C10.4043 6.46427 10.7831 5.53616 11.4574 4.85187C12.1318 4.16757 13.0463 3.78313 14 3.78313ZM19.034 8.16179V7.43202C19.034 6.07717 18.5036 4.77782 17.5595 3.8198C16.6155 2.86179 15.3351 2.32358 14 2.32358C12.6649 2.32358 11.3845 2.86179 10.4404 3.8198C9.49636 4.77782 8.96599 6.07717 8.96599 7.43202V8.16179H3.93201V22.7573C3.93201 23.5315 4.23507 24.274 4.77453 24.8215C5.31399 25.3689 6.04566 25.6764 6.80857 25.6764H21.1914C21.9543 25.6764 22.686 25.3689 23.2254 24.8215C23.7649 24.274 24.0679 23.5315 24.0679 22.7573V8.16179H19.034ZM5.45396 9.74731H22.5649V22.7573C22.5649 23.1444 22.4696 23.466 22.1999 23.7397C21.9301 24.0134 21.5728 24.1098 21.1914 24.1098H6.80857C6.42711 24.1098 6.09604 24.0008 5.82631 23.7271C5.55658 23.4533 5.45396 23.1444 5.45396 22.7573V9.74731Z" fill="#2E2C2F"/>
</svg>
