<svg width="28" height="28" viewBox="0 0 28 28" fill="none" xmlns="http://www.w3.org/2000/svg">
<path d="M2.3938 13.0429H11.9988V14.341H2.3938V13.0429ZM0.792969 9.17773L8.79714 9.17778V10.4913H0.792969V9.17773Z" fill="#2E2C2F"/>
<path fill-rule="evenodd" clip-rule="evenodd" d="M23.9911 9.05649L26.7358 15.4608C26.7847 15.5746 26.81 15.6973 26.8099 15.8212L26.7848 21.9777C26.7848 22.2204 26.6884 22.4531 26.5168 22.6246C26.3453 22.7962 26.1126 22.8926 25.8699 22.8926H23.9353C23.7363 23.6778 23.2811 24.622 22.6419 25.1195C22.0026 25.6169 21.2157 25.887 20.4057 25.887C19.5956 25.887 18.8087 25.6169 18.1694 25.1195C17.5302 24.622 16.9905 23.7264 16.876 22.8926H11.1268C10.9871 23.8411 10.3745 24.7544 9.63733 25.2544C8.90012 25.7543 8.00591 25.9681 7.12229 25.8559C6.23867 25.7437 5.42631 25.313 4.8375 24.6447C4.24868 23.9764 3.92383 23.1162 3.92383 22.2255C3.92383 21.3348 4.24868 20.4746 4.8375 19.8063C5.42631 19.138 6.23867 18.7073 7.12229 18.5951C8.00591 18.4828 8.90012 18.6967 9.63733 19.1966C10.3745 19.6966 10.9041 20.4482 11.1268 21.3106H16.876C16.9977 20.8442 17.2106 20.4064 17.5024 20.0227C17.7941 19.6389 18.4066 19.1411 18.8982 18.9258V8.70731C18.8982 8.08867 18.3967 7.58717 17.7781 7.58717H4.85243V6.11827H17.8558C18.6453 6.11827 19.2249 6.27918 19.7086 6.76285C20.075 7.12922 20.4057 7.65472 20.4057 8.50207H23.1503C23.3294 8.50197 23.5045 8.55446 23.654 8.65302C23.8035 8.75159 23.9207 8.89188 23.9911 9.05649ZM22.9329 10.1136H20.4057V14.9063V16.7361V18.5659C21.2148 18.5682 22.0004 18.8389 22.6391 19.3356C23.2779 19.8323 23.7844 20.4531 23.9353 21.3106H25.3537V16.7361V15.8212L24.8076 14.5801L22.9329 10.1136ZM22.8232 22.2255C22.8232 23.6063 21.7999 24.6447 20.4191 24.6447C19.0383 24.6447 17.9976 23.6063 17.9976 22.2255C17.9976 20.8447 19.0383 19.8063 20.4191 19.8063C21.7999 19.8063 22.8232 20.8447 22.8232 22.2255ZM7.59913 24.6447C8.97998 24.6447 10.0062 23.6063 10.0062 22.2255C10.0062 20.8447 8.97998 19.8063 7.59913 19.8063C6.21829 19.8063 5.16402 20.8447 5.16402 22.2255C5.16402 23.6063 6.21829 24.6447 7.59913 24.6447Z" fill="#2E2C2F"/>
</svg>
