<svg width="28" height="28" viewBox="0 0 28 28" fill="none" xmlns="http://www.w3.org/2000/svg">
<path d="M13.9905 16.9711C19.0814 16.9711 23.297 19.143 23.8372 21.04V23.6906H4.12582V21.04C4.61849 18.9997 9.28711 16.9711 13.9905 16.9711ZM13.9905 15.4C10.264 15.4 2.79999 17.2425 2.79999 21.04V25.2H25.2V21.04C25.2 17.2425 17.717 15.4 13.9905 15.4Z" fill="#2E2C2F"/>
<path fill-rule="evenodd" clip-rule="evenodd" d="M14 12.6C16.3196 12.6 18.2 10.7196 18.2 8.40005C18.2 6.08045 16.3196 4.20005 14 4.20005C11.6804 4.20005 9.80002 6.08045 9.80002 8.40005C9.80002 10.7196 11.6804 12.6 14 12.6ZM14 14C17.0928 14 19.6 11.4928 19.6 8.40005C19.6 5.30725 17.0928 2.80005 14 2.80005C10.9072 2.80005 8.40002 5.30725 8.40002 8.40005C8.40002 11.4928 10.9072 14 14 14Z" fill="#2E2C2F"/>
</svg>
