<svg width="28" height="28" viewBox="0 0 28 28" fill="none" xmlns="http://www.w3.org/2000/svg">
<path d="M20.9822 24.0028H7.01493C6.21584 24.0012 5.44996 23.683 4.88491 23.1179C4.31987 22.5529 4.00169 21.787 4 20.9879V8.81803C4.00153 8.01839 4.32007 7.25198 4.88577 6.68682C5.45148 6.12166 6.21819 5.80387 7.01783 5.8031H20.9851C21.7847 5.80464 22.5511 6.12317 23.1163 6.68887C23.6814 7.25458 23.9992 8.02129 24 8.82093V20.985C23.9991 21.7851 23.6808 22.5522 23.1151 23.1179C22.5493 23.6837 21.7823 24.0019 20.9822 24.0028ZM7.01493 7.24969C6.59912 7.25015 6.20047 7.41553 5.90645 7.70955C5.61243 8.00357 5.44705 8.40222 5.44659 8.81803V20.985C5.44797 21.4003 5.61374 21.7981 5.90764 22.0914C6.20155 22.3848 6.59967 22.5498 7.01493 22.5505H20.9822C21.397 22.5492 21.7944 22.3839 22.0878 22.0906C22.3811 21.7973 22.5464 21.3998 22.5476 20.985V8.81803C22.5465 8.40318 22.3813 8.00562 22.0879 7.71228C21.7946 7.41893 21.397 7.25366 20.9822 7.25259L7.01493 7.24969Z" fill="#2E2C2F"/>
<path d="M23.2748 13.9036H4.74519C4.55298 13.9036 4.36863 13.8272 4.23272 13.6913C4.0968 13.5554 4.02045 13.3711 4.02045 13.1788C4.02045 12.9866 4.0968 12.8023 4.23272 12.6664C4.36863 12.5305 4.55298 12.4541 4.74519 12.4541H23.2748C23.467 12.4541 23.6514 12.5305 23.7873 12.6664C23.9232 12.8023 23.9996 12.9866 23.9996 13.1788C23.9996 13.3711 23.9232 13.5554 23.7873 13.6913C23.6514 13.8272 23.467 13.9036 23.2748 13.9036Z" fill="#2E2C2F"/>
<path d="M9.33656 9.16307C9.24136 9.16314 9.14709 9.14445 9.05912 9.10806C8.97116 9.07166 8.89123 9.01828 8.82392 8.95096C8.75661 8.88365 8.70322 8.80373 8.66683 8.71576C8.63043 8.6278 8.61174 8.53352 8.61182 8.43832V4.72474C8.61182 4.53253 8.68817 4.34819 8.82409 4.21227C8.96 4.07636 9.14435 4 9.33656 4C9.52877 4 9.71311 4.07636 9.84903 4.21227C9.98495 4.34819 10.0613 4.53253 10.0613 4.72474V8.43832C10.0613 8.63054 9.98495 8.81488 9.84903 8.95079C9.71311 9.08671 9.52877 9.16307 9.33656 9.16307Z" fill="#2E2C2F"/>
<path d="M18.6614 9.16307C18.5663 9.16314 18.472 9.14445 18.384 9.10806C18.296 9.07166 18.2161 9.01828 18.1488 8.95096C18.0815 8.88365 18.0281 8.80373 17.9917 8.71576C17.9553 8.6278 17.9366 8.53352 17.9367 8.43832V4.72474C17.9367 4.53253 18.0131 4.34819 18.149 4.21227C18.2849 4.07636 18.4692 4 18.6614 4C18.8537 4 19.038 4.07636 19.1739 4.21227C19.3098 4.34819 19.3862 4.53253 19.3862 4.72474V8.43832C19.3862 8.63054 19.3098 8.81488 19.1739 8.95079C19.038 9.08671 18.8537 9.16307 18.6614 9.16307Z" fill="#2E2C2F"/>
</svg>
