<svg width="28" height="28" viewBox="0 0 28 28" fill="none" xmlns="http://www.w3.org/2000/svg">
<path d="M2.80164 8.39988C2.80164 7.65728 3.09663 6.94509 3.62174 6.41998C4.14684 5.89488 4.85903 5.59988 5.60164 5.59988H22.4016C23.1442 5.59988 23.8564 5.89488 24.3815 6.41998C24.9066 6.94509 25.2016 7.65728 25.2016 8.39988V19.5999C25.2016 20.3425 24.9066 21.0547 24.3815 21.5798C23.8564 22.1049 23.1442 22.3999 22.4016 22.3999H5.60164C4.85903 22.3999 4.14684 22.1049 3.62174 21.5798C3.09663 21.0547 2.80164 20.3425 2.80164 19.5999V8.39988ZM5.60164 6.99988C5.23033 6.99988 4.87424 7.14738 4.61169 7.40993C4.34914 7.67249 4.20164 8.02858 4.20164 8.39988V9.79988H23.8016V8.39988C23.8016 8.02858 23.6541 7.67249 23.3916 7.40993C23.129 7.14738 22.7729 6.99988 22.4016 6.99988H5.60164ZM23.8016 11.1894H4.20164V19.5999C4.20164 19.9712 4.34914 20.3273 4.61169 20.5898C4.87424 20.8524 5.23033 20.9999 5.60164 20.9999H22.4016C22.7729 20.9999 23.129 20.8524 23.3916 20.5898C23.6541 20.3273 23.8016 19.9712 23.8016 19.5999V11.1894Z" fill="#2E2C2F"/>
<path d="M5.60164 19.5999V18.1764H11.1821V19.5999H5.60164Z" fill="#2E2C2F"/>
</svg>
