<svg width="13" height="12" viewBox="0 0 13 12" fill="none" xmlns="http://www.w3.org/2000/svg">
<path d="M11.4997 8.46005V9.96005C11.5003 10.0993 11.4718 10.2371 11.416 10.3647C11.3602 10.4923 11.2784 10.6068 11.1758 10.701C11.0732 10.7951 10.952 10.8668 10.8201 10.9114C10.6882 10.956 10.5484 10.9726 10.4097 10.96C8.87114 10.7929 7.39322 10.2671 6.09472 9.42505C4.88664 8.65738 3.86239 7.63313 3.09472 6.42505C2.24971 5.12065 1.72384 3.63555 1.55972 2.09005C1.54723 1.95178 1.56366 1.81243 1.60797 1.68086C1.65229 1.54929 1.72351 1.42839 1.81711 1.32586C1.9107 1.22332 2.02462 1.1414 2.15162 1.08531C2.27861 1.02922 2.41589 1.00018 2.55472 1.00005H4.05472C4.29738 0.99766 4.53262 1.08359 4.7166 1.24181C4.90059 1.40004 5.02076 1.61977 5.05472 1.86005C5.11803 2.34008 5.23545 2.81141 5.40472 3.26505C5.47199 3.44401 5.48655 3.63851 5.44668 3.82549C5.4068 4.01247 5.31415 4.1841 5.17972 4.32005L4.54472 4.95505C5.2565 6.20682 6.29295 7.24327 7.54472 7.95505L8.17972 7.32005C8.31567 7.18562 8.4873 7.09297 8.67428 7.0531C8.86126 7.01322 9.05576 7.02778 9.23472 7.09505C9.68836 7.26432 10.1597 7.38174 10.6397 7.44505C10.8826 7.47931 11.1044 7.60165 11.263 7.7888C11.4216 7.97594 11.5058 8.21484 11.4997 8.46005Z" stroke="#7B7975" stroke-linecap="round" stroke-linejoin="round"/>
</svg>
