<svg width="48" height="48" viewBox="0 0 48 48" fill="none" xmlns="http://www.w3.org/2000/svg">
<path d="M22.0916 13.5C20.3925 13.5 18.7316 14.0038 17.3189 14.9478C15.9062 15.8917 14.8051 17.2334 14.1549 18.8031C13.5047 20.3729 13.3346 22.1002 13.666 23.7666C13.9975 25.433 14.8157 26.9637 16.0171 28.1651C17.2185 29.3665 18.7492 30.1847 20.4157 30.5162C22.0821 30.8477 23.8094 30.6775 25.3791 30.0273C26.9488 29.3771 28.2905 28.2761 29.2345 26.8633C30.1784 25.4506 30.6822 23.7897 30.6822 22.0906C30.6821 19.8123 29.777 17.6273 28.1659 16.0163C26.5549 14.4053 24.3699 13.5001 22.0916 13.5V13.5Z" stroke="#2E2C2F" stroke-width="1.74995" stroke-miterlimit="10"/>
<path d="M29.1177 27.8818C28.776 27.5401 28.222 27.5401 27.8803 27.8818C27.5386 28.2235 27.5386 28.7775 27.8803 29.1192L29.1177 27.8818ZM33.8799 35.1188L34.4986 35.7375L35.736 34.5001L35.1173 33.8814L33.8799 35.1188ZM27.8803 29.1192L33.8799 35.1188L35.1173 33.8814L29.1177 27.8818L27.8803 29.1192Z" fill="#2E2C2F"/>
</svg>
