<svg width="21" height="20" viewBox="0 0 21 20" fill="none" xmlns="http://www.w3.org/2000/svg">
<path d="M9.13633 2.5C7.92268 2.5 6.73628 2.85989 5.72717 3.53416C4.71806 4.20843 3.93155 5.16679 3.4671 6.28806C3.00266 7.40932 2.88114 8.64314 3.11791 9.83347C3.35468 11.0238 3.93911 12.1172 4.79729 12.9754C5.65547 13.8335 6.74886 14.418 7.93919 14.6547C9.12952 14.8915 10.3633 14.77 11.4846 14.3056C12.6059 13.8411 13.5642 13.0546 14.2385 12.0455C14.9128 11.0364 15.2727 9.84998 15.2727 8.63633C15.2726 7.0089 14.626 5.44817 13.4753 4.2974C12.3245 3.14664 10.7638 2.5001 9.13633 2.5V2.5Z" stroke="#2E2C2F" stroke-width="1.25" stroke-miterlimit="10"/>
<path d="M14.1548 12.7729C13.9108 12.5288 13.515 12.5288 13.2709 12.7729C13.0269 13.017 13.0269 13.4127 13.2709 13.6568L14.1548 12.7729ZM17.5565 17.9423L17.9984 18.3843L18.8823 17.5004L18.4404 17.0584L17.5565 17.9423ZM13.2709 13.6568L17.5565 17.9423L18.4404 17.0584L14.1548 12.7729L13.2709 13.6568Z" fill="#2E2C2F"/>
</svg>
