<svg width="250" height="250" viewBox="0 0 250 250" fill="none" xmlns="http://www.w3.org/2000/svg">
<mask id="mask0_1_2901" style="mask-type:alpha" maskUnits="userSpaceOnUse" x="0" y="0" width="250" height="250">
<rect width="250" height="250" rx="10" fill="#DAE5DA"/>
</mask>
<g mask="url(#mask0_1_2901)">
<path d="M68.9556 103.5C65.5893 103.5 62.875 106.12 62.875 109.375V121.125C62.875 124.38 65.5893 127 68.9556 127H74.625V250.375H80.5V171.062H221.5V250.375H227.375V127H233.044C236.411 127 239.125 124.38 239.125 121.125V109.375C239.125 106.12 236.411 103.5 233.044 103.5H68.9556ZM80.5 132.875H221.5V138.75H80.5V132.875ZM80.5 144.625H221.5V150.5H80.5V144.625ZM80.5 156.375H221.5V162.25H80.5V156.375ZM140.601 199.85C138.486 199.85 136.489 199.791 134.292 200.543C132.094 201.272 130.003 202.729 127.571 205.179L115.568 216.999H115.533L115.051 217.469H123.082L131.542 209.138H131.548C133.645 207.029 134.944 206.242 136.072 205.866C137.2 205.49 138.457 205.478 140.607 205.478H153.938V211.494C153.938 214.772 151.635 217.481 148.797 217.481H115.509L94.5119 223.274C91.78 224.031 89.383 225.982 89.383 229.266V232.168H92.156C96.1334 232.11 96.1334 238.102 92.156 238.043H89.383V240.922C89.383 244.206 91.6743 246.915 94.5119 246.915H104.118C104.082 246.562 104 246.227 104 245.869C104 239.536 109.358 234.46 115.75 234.46C122.142 234.46 127.5 239.536 127.5 245.869C127.5 246.221 127.418 246.562 127.382 246.909H174.618C174.582 246.556 174.5 246.221 174.5 245.869C174.5 239.536 179.858 234.46 186.25 234.46C192.642 234.46 198 239.536 198 245.869C198 246.221 197.918 246.562 197.882 246.909H207.476C210.32 246.909 212.617 244.206 212.617 240.916V223.409C212.617 220.236 210.449 217.622 207.741 217.475H207.729C207.647 217.475 207.576 217.416 207.494 217.416H197.107L196.267 216.653C196.267 216.653 187.572 208.38 183.06 204.497L183.183 204.632C180.305 201.624 177.978 199.862 172.902 199.862H140.601V199.85ZM165.688 205.49H172.326C174.811 205.49 176.797 206.312 179.065 208.68L179.135 208.751L188.671 217.481H170.828C167.99 217.481 165.688 214.773 165.688 211.488V205.49ZM144.831 226.287H151C154.971 226.229 154.971 232.221 151 232.162H145.125C141.206 232.368 140.913 226.493 144.831 226.287ZM165.423 226.287H171.592C175.569 226.229 175.569 232.221 171.592 232.162H165.717C161.804 232.368 161.51 226.493 165.423 226.287ZM209.386 232.162H212.552V238.037H209.68C205.767 238.243 205.467 232.368 209.386 232.162ZM115.016 239.33C111.667 239.33 109.141 241.821 109.141 244.852C109.141 247.89 111.667 250.375 115.016 250.375C118.364 250.375 120.891 247.89 120.891 244.852C120.891 241.821 118.364 239.33 115.016 239.33ZM185.839 239.33C182.484 239.33 179.964 241.821 179.964 244.852C179.964 247.89 182.484 250.375 185.839 250.375C189.188 250.375 191.714 247.89 191.714 244.852C191.714 241.821 189.188 239.33 185.839 239.33Z" fill="#E8EDE8"/>
<circle cx="150.5" cy="166.5" r="123" stroke="#E8EDE8" stroke-width="7"/>
</g>
</svg>
