<svg width="100" height="24" viewBox="0 0 100 24" fill="none" xmlns="http://www.w3.org/2000/svg">
<g clip-path="url(#clip0_3985_39155)">
<path d="M51.4668 7.26277H48.1863L45.8646 11.3066H44.6695L44.6316 2.55502H41.5259V18.3607H44.6316L44.6695 14.0226H45.8571L48.9396 18.3607H52.3803L48.3614 12.6118L51.4668 7.26277Z" fill="#0A2540"/>
<path d="M74.9722 12.4685C74.3411 12.0638 73.6574 11.7465 72.9397 11.5254L72.2546 11.2689L72.0693 11.2C71.6437 11.0419 71.1967 10.8757 71.1813 10.4466C71.1776 10.3192 71.2061 10.1929 71.2646 10.0794C71.3231 9.96597 71.4097 9.86907 71.5166 9.79778C71.7412 9.64414 72.0048 9.55534 72.2774 9.54124C72.8722 9.50056 73.4617 9.67478 73.9368 10.0317L74.0208 10.0845L75.6802 8.19079L75.5962 8.12292C75.3896 7.94037 75.1653 7.77863 74.9264 7.64007C74.4986 7.39737 74.0328 7.22656 73.5487 7.13457C72.8512 6.98749 72.1301 6.98749 71.4326 7.13457C70.7583 7.22303 70.1186 7.48294 69.5752 7.88903C69.2279 8.15836 68.9377 8.49289 68.7209 8.87348C68.5042 9.25403 68.3651 9.67324 68.3118 10.1071C68.2166 10.89 68.4172 11.6802 68.8751 12.3252C69.4833 12.9926 70.2783 13.4654 71.1584 13.6832L71.2957 13.7285L71.6077 13.8341C72.7342 14.2113 73.0541 14.3622 73.2367 14.5885C73.3214 14.7024 73.3694 14.8392 73.3736 14.9808C73.3736 15.5165 72.7113 15.7353 72.2624 15.8711C71.9482 15.9295 71.6257 15.9236 71.3141 15.8535C71.0024 15.7834 70.7084 15.6507 70.4508 15.4637C70.0334 15.1871 69.6764 14.8305 69.4004 14.415C69.3543 14.4626 69.2017 14.6137 69.0022 14.8113C68.4423 15.3659 67.5131 16.2864 67.5356 16.3086L67.5888 16.3841C68.4176 17.4127 69.5789 18.1267 70.8768 18.406C71.1734 18.4629 71.4738 18.5007 71.7753 18.5192H72.0873C73.1126 18.5405 74.1172 18.2307 74.9493 17.6365C75.5122 17.2419 75.9438 16.6904 76.1902 16.0521C76.3398 15.6236 76.3927 15.1678 76.3454 14.7168C76.2982 14.2658 76.1516 13.8305 75.9161 13.4418C75.6753 13.0541 75.3536 12.7221 74.9722 12.4685Z" fill="#0A2540"/>
<path d="M82.98 11.5253C83.6951 11.7464 84.3765 12.0637 85.0046 12.4684C85.3793 12.722 85.6954 13.0511 85.9331 13.4341C86.1686 13.8229 86.3153 14.2581 86.3625 14.7091C86.4098 15.1602 86.3569 15.616 86.2073 16.0445C85.9613 16.6828 85.5293 17.2342 84.9664 17.6288C84.1343 18.223 83.1297 18.5328 82.1044 18.5115H81.7924C81.4909 18.4935 81.1909 18.4557 80.8943 18.3984C79.596 18.1191 78.435 17.405 77.6059 16.3765L77.5451 16.301C77.5301 16.2812 78.264 15.5513 78.819 14.9999C79.1104 14.7103 79.3523 14.4697 79.41 14.4073C79.6901 14.8196 80.0464 15.1754 80.4604 15.456C80.7195 15.6433 81.0146 15.776 81.3274 15.8461C81.6401 15.9161 81.9641 15.922 82.2795 15.8634C82.7288 15.7276 83.3831 15.5088 83.3831 14.9732C83.3873 14.8315 83.3415 14.6928 83.2538 14.5808C83.0711 14.3545 82.7516 14.2036 81.6173 13.8264L81.3053 13.7208L81.1759 13.6755C80.2954 13.4578 79.5004 12.985 78.8921 12.3175C78.4305 11.6744 78.2295 10.8827 78.3289 10.0994C78.3848 9.66568 78.5265 9.24706 78.7459 8.86771C78.9653 8.48836 79.2581 8.15574 79.6076 7.88893C80.1521 7.4852 80.7915 7.22555 81.465 7.13446C82.1651 6.9872 82.8885 6.9872 83.5886 7.13446C84.0705 7.22671 84.5336 7.39753 84.9589 7.63996C85.2015 7.77661 85.4284 7.93846 85.6365 8.12278L85.7126 8.19069L84.0533 10.0844L83.9771 10.0315C83.5013 9.67591 82.9122 9.50184 82.3178 9.54114C82.0448 9.55524 81.7811 9.64404 81.5565 9.79768C81.4523 9.87181 81.3672 9.96913 81.3075 10.0818C81.2479 10.1945 81.216 10.3193 81.2138 10.4465C81.2366 10.8765 81.6784 11.0425 82.1123 11.2009L82.287 11.2688L82.98 11.5253Z" fill="#0A2540"/>
<path fill-rule="evenodd" clip-rule="evenodd" d="M61.6663 7.26273V8.34915H61.5294C60.6793 7.50551 59.5277 7.02836 58.3247 7.02131C57.5874 7.00687 56.855 7.14652 56.1759 7.43122C55.4964 7.71589 54.8852 8.13918 54.3819 8.67356C53.3668 9.80025 52.8223 11.2677 52.8594 12.7777C52.82 14.3131 53.3634 15.8073 54.3819 16.9649C54.8732 17.4996 55.4747 17.9233 56.1459 18.2071C56.8172 18.4909 57.542 18.6282 58.2714 18.6096C59.4759 18.5872 60.6343 18.1467 61.5444 17.3648H61.6663V18.338H64.8939V7.26273H61.6663ZM61.826 12.8381C61.8587 13.7306 61.5579 14.6036 60.9812 15.2901C60.7048 15.5967 60.3639 15.8395 59.9825 16.0012C59.6012 16.1628 59.1887 16.2394 58.7739 16.2256C58.3719 16.2323 57.9733 16.1489 57.608 15.9817C57.2432 15.8145 56.9207 15.5677 56.6653 15.2599C56.0957 14.5592 55.8035 13.6767 55.8433 12.7777C55.8174 11.9058 56.1155 11.0548 56.6807 10.3861C56.9409 10.0829 57.2657 9.84045 57.6313 9.67612C57.9973 9.5118 58.3952 9.42964 58.7968 9.43556C59.2085 9.42285 59.618 9.50081 59.996 9.6639C60.3737 9.82698 60.71 10.0711 60.9812 10.3786C61.5575 11.068 61.8583 11.9433 61.826 12.8381Z" fill="#0A2540"/>
<path fill-rule="evenodd" clip-rule="evenodd" d="M96.7727 8.34921V7.26284H100V18.3381H96.7727V17.3649H96.6509C95.7404 18.1468 94.582 18.5873 93.3779 18.6097C92.6481 18.6282 91.9232 18.4909 91.2524 18.2072C90.5811 17.9234 89.9792 17.4997 89.488 16.965C88.4695 15.8074 87.9265 14.3133 87.9659 12.7779C87.9287 11.2678 88.4729 9.80035 89.488 8.67363C89.9935 8.13981 90.6062 7.71696 91.2865 7.43238C91.9671 7.14779 92.7002 7.0078 93.4386 7.02141C94.639 7.03041 95.7872 7.50741 96.6355 8.34921H96.7727ZM96.0876 15.2902C96.6674 14.6055 96.9685 13.7313 96.9325 12.8382C96.9681 11.9429 96.667 11.0664 96.0876 10.3787C95.8165 10.0712 95.4797 9.82705 95.1021 9.664C94.7245 9.50091 94.3146 9.42291 93.9029 9.43563C93.5012 9.42974 93.1034 9.51186 92.7377 9.67623C92.3717 9.84055 92.047 10.083 91.7867 10.3863C91.2216 11.0549 90.9239 11.9059 90.9497 12.7779C90.9096 13.6768 91.2021 14.5593 91.7717 15.26C92.0271 15.5679 92.3492 15.8146 92.7145 15.9818C93.0794 16.149 93.478 16.2324 93.88 16.2257C94.2947 16.2395 94.7072 16.1629 95.0886 16.0012C95.4704 15.8396 95.8112 15.5968 96.0876 15.2902Z" fill="#0A2540"/>
<path fill-rule="evenodd" clip-rule="evenodd" d="M10.1659 11.891C10.1838 5.34034 15.5999 0 22.4058 0C29.1455 0 34.7232 5.358 34.6458 11.9235C34.6458 18.4889 29.1455 23.8469 22.4058 23.8469C15.6771 23.8469 10.1839 18.5817 10.1659 11.9561V20.8283H5.82771L0.25 3.47137H10.1659V11.891ZM17.8352 11.9235C17.8352 14.3384 19.9268 16.3759 22.4058 16.3759C24.9622 16.3759 26.9764 14.3384 26.9764 11.9235C26.9764 9.50858 24.8848 7.47105 22.4058 7.47105C19.9268 7.47105 17.8352 9.50858 17.8352 11.9235Z" fill="#0070F0"/>
</g>
<defs>
<clipPath id="clip0_3985_39155">
<rect width="99.75" height="24" fill="white" transform="translate(0.25)"/>
</clipPath>
</defs>
</svg>
